M48
; DRILL file {KiCad (5.1.10)-1} date 12/11/21 23:13:15
; FORMAT={-:-/ absolute / metric / decimal}
; #@! TF.CreationDate,2021-12-11T23:13:15+01:00
; #@! TF.GenerationSoftware,Kicad,Pcbnew,(5.1.10)-1
; #@! TF.FileFunction,Plated,1,2,PTH
FMAT,2
METRIC
T1C0.200
T2C0.400
T3C0.500
T4C0.600
%
G90
G05
T1
X164.271Y-90.424
X164.846Y-89.474
X164.846Y-91.374
X165.421Y-90.424
T2
X142.748Y-80.264
X144.526Y-85.344
X146.558Y-81.026
X148.59Y-81.026
X153.416Y-81.026
X155.766Y-73.025
X157.734Y-76.2
X160.274Y-78.105
X160.524Y-73.981
X161.29Y-78.105
X174.244Y-83.566
X174.244Y-85.344
T3
X172.72Y-99.568
X173.72Y-99.568
T4
X182.516Y-77.722G85X181.416Y-77.722
G05
X182.516Y-86.362G85X181.416Y-86.362
G05
X186.536Y-77.722G85X185.736Y-77.722
G05
X186.536Y-86.362G85X185.736Y-86.362
G05
T0
M30
