%TF.GenerationSoftware,KiCad,Pcbnew,(5.1.10)-1*%
%TF.CreationDate,2021-12-11T22:37:13+01:00*%
%TF.ProjectId,tracker,74726163-6b65-4722-9e6b-696361645f70,rev?*%
%TF.SameCoordinates,Original*%
%TF.FileFunction,Copper,L2,Bot*%
%TF.FilePolarity,Positive*%
%FSLAX46Y46*%
G04 Gerber Fmt 4.6, Leading zero omitted, Abs format (unit mm)*
G04 Created by KiCad (PCBNEW (5.1.10)-1) date 2021-12-11 22:37:13*
%MOMM*%
%LPD*%
G01*
G04 APERTURE LIST*
%TA.AperFunction,ComponentPad*%
%ADD10O,2.000000X0.900000*%
%TD*%
%TA.AperFunction,ComponentPad*%
%ADD11O,1.700000X0.900000*%
%TD*%
%TA.AperFunction,ComponentPad*%
%ADD12R,0.850000X0.850000*%
%TD*%
%TA.AperFunction,ComponentPad*%
%ADD13O,0.850000X0.850000*%
%TD*%
%TA.AperFunction,ComponentPad*%
%ADD14C,0.500000*%
%TD*%
%TA.AperFunction,ViaPad*%
%ADD15C,0.800000*%
%TD*%
%TA.AperFunction,Conductor*%
%ADD16C,0.250000*%
%TD*%
%TA.AperFunction,Conductor*%
%ADD17C,0.200000*%
%TD*%
%TA.AperFunction,Conductor*%
%ADD18C,0.100000*%
%TD*%
G04 APERTURE END LIST*
D10*
%TO.P,J1,S1*%
%TO.N,GND*%
X181966000Y-86362000D03*
X181966000Y-77722000D03*
D11*
X186136000Y-86362000D03*
X186136000Y-77722000D03*
%TD*%
D12*
%TO.P,J2,1*%
%TO.N,Net-(C6-Pad1)*%
X172720000Y-99568000D03*
D13*
%TO.P,J2,2*%
%TO.N,Net-(C6-Pad2)*%
X173720000Y-99568000D03*
%TD*%
D14*
%TO.P,U7,11*%
%TO.N,GND*%
X164846000Y-91374000D03*
X164271000Y-90424000D03*
X165421000Y-90424000D03*
X164846000Y-89474000D03*
%TD*%
D15*
%TO.N,GND*%
X155765500Y-73025000D03*
X160524000Y-73981500D03*
%TO.N,SCL*%
X146558000Y-81026000D03*
X160274000Y-78232000D03*
%TO.N,SDA*%
X148590000Y-81026000D03*
X161290000Y-78232000D03*
%TO.N,TX*%
X174244000Y-83566000D03*
X142748000Y-80264000D03*
%TO.N,INT*%
X153416000Y-81026000D03*
X157734000Y-75946000D03*
%TO.N,RX*%
X174244000Y-85344000D03*
X144526000Y-85344000D03*
%TD*%
D16*
%TO.N,SCL*%
X146558000Y-81026000D02*
X147828000Y-79756000D01*
X147828000Y-79756000D02*
X159766000Y-79756000D01*
X160274000Y-79248000D02*
X160274000Y-78232000D01*
X159766000Y-79756000D02*
X160274000Y-79248000D01*
%TO.N,SDA*%
X161290000Y-78868410D02*
X161290000Y-78232000D01*
X159952401Y-80206009D02*
X161290000Y-78868410D01*
X159823990Y-80206010D02*
X159952401Y-80206009D01*
X159766000Y-80264000D02*
X159823990Y-80206010D01*
X149352000Y-80264000D02*
X159766000Y-80264000D01*
X148590000Y-81026000D02*
X149352000Y-80264000D01*
%TO.N,TX*%
X142748000Y-80264000D02*
X142748000Y-82550000D01*
X142748000Y-82550000D02*
X144780000Y-84582000D01*
X173228000Y-84582000D02*
X174244000Y-83566000D01*
X144780000Y-84582000D02*
X173228000Y-84582000D01*
%TO.N,INT*%
X157734000Y-75946000D02*
X157734000Y-76708000D01*
X162052000Y-78742820D02*
X160020000Y-80774820D01*
X158496000Y-77470000D02*
X161798000Y-77470000D01*
X162052000Y-77724000D02*
X162052000Y-78742820D01*
X161798000Y-77470000D02*
X162052000Y-77724000D01*
X157734000Y-76708000D02*
X158496000Y-77470000D01*
X153416000Y-81026000D02*
X153670000Y-81026000D01*
X153921180Y-80774820D02*
X154683180Y-80774820D01*
X154683180Y-80774820D02*
X154429180Y-80774820D01*
X153670000Y-81026000D02*
X153921180Y-80774820D01*
X160020000Y-80774820D02*
X154683180Y-80774820D01*
%TO.N,RX*%
X174244000Y-85344000D02*
X144526000Y-85344000D01*
%TD*%
D17*
%TO.N,GND*%
X181734700Y-62870224D02*
X181854645Y-62906438D01*
X181965282Y-62965264D01*
X182062377Y-63044454D01*
X182142245Y-63140997D01*
X182201838Y-63251212D01*
X182238891Y-63370911D01*
X182255000Y-63524180D01*
X182255001Y-66705704D01*
X182257701Y-66733114D01*
X182257618Y-66744945D01*
X182258470Y-66753630D01*
X182297333Y-67123384D01*
X182308722Y-67178868D01*
X182319338Y-67234517D01*
X182321860Y-67242871D01*
X182431802Y-67598035D01*
X182453765Y-67650281D01*
X182474974Y-67702777D01*
X182479070Y-67710481D01*
X182655902Y-68037526D01*
X182687586Y-68084500D01*
X182718597Y-68131890D01*
X182724105Y-68138643D01*
X182724111Y-68138651D01*
X182724118Y-68138658D01*
X182961101Y-68425122D01*
X183001284Y-68465025D01*
X183040930Y-68505510D01*
X183047653Y-68511072D01*
X183335770Y-68746055D01*
X183382980Y-68777421D01*
X183429694Y-68809407D01*
X183437359Y-68813551D01*
X183437368Y-68813557D01*
X183437377Y-68813561D01*
X183765642Y-68988103D01*
X183818041Y-69009700D01*
X183870079Y-69032004D01*
X183878409Y-69034582D01*
X183878416Y-69034585D01*
X183878423Y-69034586D01*
X184234338Y-69142044D01*
X184289910Y-69153048D01*
X184345317Y-69164825D01*
X184353991Y-69165737D01*
X184353995Y-69165737D01*
X184723445Y-69201961D01*
X184754296Y-69205000D01*
X187929434Y-69205000D01*
X188084700Y-69220224D01*
X188204645Y-69256438D01*
X188315282Y-69315264D01*
X188412377Y-69394454D01*
X188492245Y-69490997D01*
X188551838Y-69601212D01*
X188588891Y-69720911D01*
X188605000Y-69874180D01*
X188605001Y-100934424D01*
X188589776Y-101089700D01*
X188553562Y-101209646D01*
X188494737Y-101320279D01*
X188415547Y-101417376D01*
X188319005Y-101497244D01*
X188208787Y-101556838D01*
X188089089Y-101593891D01*
X187935820Y-101610000D01*
X184119296Y-101610000D01*
X184092312Y-101612658D01*
X184084490Y-101612603D01*
X184075805Y-101613455D01*
X183829302Y-101639363D01*
X183773819Y-101650752D01*
X183718166Y-101661368D01*
X183709812Y-101663890D01*
X183473036Y-101737185D01*
X183420765Y-101759158D01*
X183368295Y-101780357D01*
X183360590Y-101784453D01*
X183142561Y-101902341D01*
X183095593Y-101934021D01*
X183048196Y-101965037D01*
X183041434Y-101970552D01*
X182850454Y-102128545D01*
X182810518Y-102168761D01*
X182770067Y-102208373D01*
X182764504Y-102215097D01*
X182607850Y-102407175D01*
X182576501Y-102454359D01*
X182544497Y-102501099D01*
X182540347Y-102508775D01*
X182423984Y-102727622D01*
X182402397Y-102779997D01*
X182380083Y-102832059D01*
X182377503Y-102840395D01*
X182305863Y-103077676D01*
X182294861Y-103133240D01*
X182283082Y-103188654D01*
X182282170Y-103197333D01*
X182257983Y-103444011D01*
X182257983Y-103444019D01*
X182255001Y-103474296D01*
X182255000Y-107284434D01*
X182239776Y-107439700D01*
X182203562Y-107559646D01*
X182144737Y-107670279D01*
X182065547Y-107767376D01*
X181969005Y-107847244D01*
X181858787Y-107906838D01*
X181739089Y-107943891D01*
X181585820Y-107960000D01*
X141000566Y-107960000D01*
X140845300Y-107944776D01*
X140725354Y-107908562D01*
X140614721Y-107849737D01*
X140517624Y-107770547D01*
X140437756Y-107674005D01*
X140378162Y-107563787D01*
X140341109Y-107444089D01*
X140325000Y-107290820D01*
X140325000Y-105366652D01*
X140982618Y-105366652D01*
X140983014Y-105423298D01*
X140982618Y-105479945D01*
X140983470Y-105488630D01*
X141022333Y-105858384D01*
X141033722Y-105913868D01*
X141044338Y-105969517D01*
X141046860Y-105977871D01*
X141156802Y-106333035D01*
X141178765Y-106385281D01*
X141199974Y-106437777D01*
X141204070Y-106445481D01*
X141380902Y-106772526D01*
X141412586Y-106819500D01*
X141443597Y-106866890D01*
X141449105Y-106873643D01*
X141449111Y-106873651D01*
X141449118Y-106873658D01*
X141686101Y-107160122D01*
X141726284Y-107200025D01*
X141765930Y-107240510D01*
X141772653Y-107246072D01*
X142060770Y-107481055D01*
X142107980Y-107512421D01*
X142154694Y-107544407D01*
X142162359Y-107548551D01*
X142162368Y-107548557D01*
X142162377Y-107548561D01*
X142490642Y-107723103D01*
X142543041Y-107744700D01*
X142595079Y-107767004D01*
X142603409Y-107769582D01*
X142603416Y-107769585D01*
X142603423Y-107769586D01*
X142959338Y-107877044D01*
X143014910Y-107888048D01*
X143070317Y-107899825D01*
X143078991Y-107900737D01*
X143078995Y-107900737D01*
X143448445Y-107936961D01*
X143479296Y-107940000D01*
X179100704Y-107940000D01*
X179132880Y-107936831D01*
X179157587Y-107936831D01*
X179166266Y-107935919D01*
X179535740Y-107894476D01*
X179591130Y-107882702D01*
X179646717Y-107871696D01*
X179655053Y-107869115D01*
X180009440Y-107756697D01*
X180061517Y-107734377D01*
X180113879Y-107712795D01*
X180121550Y-107708647D01*
X180121554Y-107708645D01*
X180121557Y-107708643D01*
X180447358Y-107529533D01*
X180494137Y-107497503D01*
X180541280Y-107466181D01*
X180548004Y-107460619D01*
X180832812Y-107221637D01*
X180872441Y-107181169D01*
X180912641Y-107141249D01*
X180918156Y-107134487D01*
X181151122Y-106844736D01*
X181182169Y-106797292D01*
X181213816Y-106750373D01*
X181217910Y-106742673D01*
X181217913Y-106742669D01*
X181217915Y-106742665D01*
X181390162Y-106413186D01*
X181411387Y-106360654D01*
X181433334Y-106308443D01*
X181435856Y-106300089D01*
X181540828Y-105943424D01*
X181551446Y-105887764D01*
X181562833Y-105832292D01*
X181563685Y-105823608D01*
X181597382Y-105453348D01*
X181596986Y-105396702D01*
X181597382Y-105340055D01*
X181596530Y-105331370D01*
X181557667Y-104961616D01*
X181546273Y-104906107D01*
X181535662Y-104850482D01*
X181533140Y-104842129D01*
X181423198Y-104486965D01*
X181401240Y-104434730D01*
X181380026Y-104382223D01*
X181375930Y-104374518D01*
X181199098Y-104047474D01*
X181167396Y-104000473D01*
X181136402Y-103953110D01*
X181130887Y-103946347D01*
X180893898Y-103659878D01*
X180853719Y-103619978D01*
X180814071Y-103579491D01*
X180807347Y-103573928D01*
X180519230Y-103338945D01*
X180472020Y-103307579D01*
X180425306Y-103275593D01*
X180417641Y-103271449D01*
X180417632Y-103271443D01*
X180417623Y-103271439D01*
X180089358Y-103096898D01*
X180036978Y-103075308D01*
X179984920Y-103052996D01*
X179976584Y-103050415D01*
X179620662Y-102942956D01*
X179565083Y-102931951D01*
X179509683Y-102920175D01*
X179501010Y-102919264D01*
X179501007Y-102919263D01*
X179501004Y-102919263D01*
X179131556Y-102883039D01*
X179100704Y-102880000D01*
X143479296Y-102880000D01*
X143447120Y-102883169D01*
X143422413Y-102883169D01*
X143413734Y-102884081D01*
X143044260Y-102925524D01*
X142988870Y-102937298D01*
X142933283Y-102948304D01*
X142924947Y-102950885D01*
X142570560Y-103063303D01*
X142518496Y-103085617D01*
X142466120Y-103107205D01*
X142458444Y-103111356D01*
X142132642Y-103290468D01*
X142085889Y-103322480D01*
X142038720Y-103353819D01*
X142031996Y-103359381D01*
X141747188Y-103598363D01*
X141707543Y-103638847D01*
X141667359Y-103678751D01*
X141661849Y-103685508D01*
X141661844Y-103685513D01*
X141661840Y-103685518D01*
X141428878Y-103975264D01*
X141397852Y-104022677D01*
X141366183Y-104069628D01*
X141362090Y-104077327D01*
X141362087Y-104077331D01*
X141362087Y-104077332D01*
X141189838Y-104406814D01*
X141168613Y-104459346D01*
X141146666Y-104511557D01*
X141144144Y-104519911D01*
X141039172Y-104876576D01*
X141028554Y-104932236D01*
X141017167Y-104987708D01*
X141016315Y-104996393D01*
X140982618Y-105366652D01*
X140325000Y-105366652D01*
X140325000Y-103474296D01*
X140322342Y-103447304D01*
X140322397Y-103439490D01*
X140321545Y-103430805D01*
X140295637Y-103184302D01*
X140284248Y-103128819D01*
X140273632Y-103073166D01*
X140271110Y-103064812D01*
X140197815Y-102828036D01*
X140175842Y-102775765D01*
X140154643Y-102723295D01*
X140150547Y-102715590D01*
X140032659Y-102497561D01*
X140000979Y-102450593D01*
X139969963Y-102403196D01*
X139964448Y-102396434D01*
X139806455Y-102205454D01*
X139766239Y-102165518D01*
X139726627Y-102125067D01*
X139719903Y-102119504D01*
X139527825Y-101962850D01*
X139480641Y-101931501D01*
X139433901Y-101899497D01*
X139426225Y-101895347D01*
X139207378Y-101778984D01*
X139155003Y-101757397D01*
X139102941Y-101735083D01*
X139094605Y-101732503D01*
X139094607Y-101732503D01*
X139094599Y-101732501D01*
X138857324Y-101660863D01*
X138801760Y-101649861D01*
X138746346Y-101638082D01*
X138737671Y-101637170D01*
X138737667Y-101637170D01*
X138491557Y-101613039D01*
X138460704Y-101610000D01*
X134650566Y-101610000D01*
X134495300Y-101594776D01*
X134375354Y-101558562D01*
X134264721Y-101499737D01*
X134167624Y-101420547D01*
X134087756Y-101324005D01*
X134028162Y-101213787D01*
X133991109Y-101094089D01*
X133975000Y-100940820D01*
X133975000Y-99609712D01*
X134024281Y-99604500D01*
X140668500Y-99604500D01*
X140678302Y-99604018D01*
X140873392Y-99584803D01*
X140892618Y-99580979D01*
X141080211Y-99524074D01*
X141098323Y-99516572D01*
X141195585Y-99464584D01*
X160396000Y-99464584D01*
X160396000Y-99671416D01*
X160436350Y-99874274D01*
X160515502Y-100065362D01*
X160630411Y-100237336D01*
X160776664Y-100383589D01*
X160948638Y-100498498D01*
X161139726Y-100577650D01*
X161342584Y-100618000D01*
X161549416Y-100618000D01*
X161752274Y-100577650D01*
X161943362Y-100498498D01*
X162115336Y-100383589D01*
X162261589Y-100237336D01*
X162376498Y-100065362D01*
X162455650Y-99874274D01*
X162496000Y-99671416D01*
X162496000Y-99464584D01*
X167196000Y-99464584D01*
X167196000Y-99671416D01*
X167236350Y-99874274D01*
X167315502Y-100065362D01*
X167430411Y-100237336D01*
X167576664Y-100383589D01*
X167748638Y-100498498D01*
X167939726Y-100577650D01*
X168142584Y-100618000D01*
X168349416Y-100618000D01*
X168552274Y-100577650D01*
X168743362Y-100498498D01*
X168915336Y-100383589D01*
X169061589Y-100237336D01*
X169176498Y-100065362D01*
X169255650Y-99874274D01*
X169296000Y-99671416D01*
X169296000Y-99464584D01*
X169255650Y-99261726D01*
X169206472Y-99143000D01*
X171692097Y-99143000D01*
X171692097Y-99993000D01*
X171703682Y-100110621D01*
X171737990Y-100223721D01*
X171793704Y-100327955D01*
X171868683Y-100419317D01*
X171960045Y-100494296D01*
X172064279Y-100550010D01*
X172177379Y-100584318D01*
X172295000Y-100595903D01*
X173145000Y-100595903D01*
X173262621Y-100584318D01*
X173375721Y-100550010D01*
X173391703Y-100541467D01*
X173421018Y-100553610D01*
X173619046Y-100593000D01*
X173820954Y-100593000D01*
X174018982Y-100553610D01*
X174205520Y-100476344D01*
X174373400Y-100364170D01*
X174516170Y-100221400D01*
X174628344Y-100053520D01*
X174705610Y-99866982D01*
X174745000Y-99668954D01*
X174745000Y-99467046D01*
X174705610Y-99269018D01*
X174628344Y-99082480D01*
X174516170Y-98914600D01*
X174373400Y-98771830D01*
X174205520Y-98659656D01*
X174018982Y-98582390D01*
X173820954Y-98543000D01*
X173619046Y-98543000D01*
X173421018Y-98582390D01*
X173391703Y-98594533D01*
X173375721Y-98585990D01*
X173262621Y-98551682D01*
X173145000Y-98540097D01*
X172295000Y-98540097D01*
X172177379Y-98551682D01*
X172064279Y-98585990D01*
X171960045Y-98641704D01*
X171868683Y-98716683D01*
X171793704Y-98808045D01*
X171737990Y-98912279D01*
X171703682Y-99025379D01*
X171692097Y-99143000D01*
X169206472Y-99143000D01*
X169176498Y-99070638D01*
X169061589Y-98898664D01*
X168915336Y-98752411D01*
X168743362Y-98637502D01*
X168552274Y-98558350D01*
X168349416Y-98518000D01*
X168142584Y-98518000D01*
X167939726Y-98558350D01*
X167748638Y-98637502D01*
X167576664Y-98752411D01*
X167430411Y-98898664D01*
X167315502Y-99070638D01*
X167236350Y-99261726D01*
X167196000Y-99464584D01*
X162496000Y-99464584D01*
X162455650Y-99261726D01*
X162376498Y-99070638D01*
X162261589Y-98898664D01*
X162115336Y-98752411D01*
X161943362Y-98637502D01*
X161752274Y-98558350D01*
X161549416Y-98518000D01*
X161342584Y-98518000D01*
X161139726Y-98558350D01*
X160948638Y-98637502D01*
X160776664Y-98752411D01*
X160630411Y-98898664D01*
X160515502Y-99070638D01*
X160436350Y-99261726D01*
X160396000Y-99464584D01*
X141195585Y-99464584D01*
X141271210Y-99424162D01*
X141287509Y-99413271D01*
X141439046Y-99288908D01*
X141452908Y-99275046D01*
X141577271Y-99123509D01*
X141588162Y-99107210D01*
X141680572Y-98934323D01*
X141688074Y-98916211D01*
X141744979Y-98728618D01*
X141748803Y-98709392D01*
X141768018Y-98514302D01*
X141768500Y-98504500D01*
X141768500Y-91966520D01*
X164465612Y-91966520D01*
X164473120Y-92142420D01*
X164630196Y-92200401D01*
X164795566Y-92226623D01*
X164962873Y-92220079D01*
X165125689Y-92181021D01*
X165218880Y-92142420D01*
X165226388Y-91966520D01*
X164846000Y-91586132D01*
X164465612Y-91966520D01*
X141768500Y-91966520D01*
X141768500Y-90373566D01*
X163418377Y-90373566D01*
X163424921Y-90540873D01*
X163463979Y-90703689D01*
X163502580Y-90796880D01*
X163678480Y-90804388D01*
X164058868Y-90424000D01*
X163678480Y-90043612D01*
X163502580Y-90051120D01*
X163444599Y-90208196D01*
X163418377Y-90373566D01*
X141768500Y-90373566D01*
X141768500Y-89831480D01*
X163890612Y-89831480D01*
X164271000Y-90211868D01*
X164285143Y-90197726D01*
X164497275Y-90409858D01*
X164483132Y-90424000D01*
X164497275Y-90438143D01*
X164285143Y-90650275D01*
X164271000Y-90636132D01*
X163890612Y-91016520D01*
X163898120Y-91192420D01*
X164007755Y-91232889D01*
X163993377Y-91323566D01*
X163999921Y-91490873D01*
X164038979Y-91653689D01*
X164077580Y-91746880D01*
X164253480Y-91754388D01*
X164633868Y-91374000D01*
X164619726Y-91359858D01*
X164831858Y-91147726D01*
X164846000Y-91161868D01*
X164860143Y-91147726D01*
X165072275Y-91359858D01*
X165058132Y-91374000D01*
X165438520Y-91754388D01*
X165614420Y-91746880D01*
X165672401Y-91589804D01*
X165698623Y-91424434D01*
X165692079Y-91257127D01*
X165686626Y-91234395D01*
X165700689Y-91231021D01*
X165793880Y-91192420D01*
X165801388Y-91016520D01*
X165421000Y-90636132D01*
X165406858Y-90650275D01*
X165194726Y-90438143D01*
X165208868Y-90424000D01*
X165633132Y-90424000D01*
X166013520Y-90804388D01*
X166189420Y-90796880D01*
X166247401Y-90639804D01*
X166273623Y-90474434D01*
X166267079Y-90307127D01*
X166228021Y-90144311D01*
X166189420Y-90051120D01*
X166013520Y-90043612D01*
X165633132Y-90424000D01*
X165208868Y-90424000D01*
X165194726Y-90409858D01*
X165406858Y-90197726D01*
X165421000Y-90211868D01*
X165801388Y-89831480D01*
X165793880Y-89655580D01*
X165684245Y-89615111D01*
X165698623Y-89524434D01*
X165692079Y-89357127D01*
X165653021Y-89194311D01*
X165614420Y-89101120D01*
X165438520Y-89093612D01*
X165058132Y-89474000D01*
X165072275Y-89488143D01*
X164860143Y-89700275D01*
X164846000Y-89686132D01*
X164831858Y-89700275D01*
X164619726Y-89488143D01*
X164633868Y-89474000D01*
X164253480Y-89093612D01*
X164077580Y-89101120D01*
X164019599Y-89258196D01*
X163993377Y-89423566D01*
X163999921Y-89590873D01*
X164005374Y-89613605D01*
X163991311Y-89616979D01*
X163898120Y-89655580D01*
X163890612Y-89831480D01*
X141768500Y-89831480D01*
X141768500Y-88881480D01*
X164465612Y-88881480D01*
X164846000Y-89261868D01*
X165226388Y-88881480D01*
X165218880Y-88705580D01*
X165061804Y-88647599D01*
X164896434Y-88621377D01*
X164729127Y-88627921D01*
X164566311Y-88666979D01*
X164473120Y-88705580D01*
X164465612Y-88881480D01*
X141768500Y-88881480D01*
X141768500Y-86672725D01*
X180413030Y-86672725D01*
X180459621Y-86820627D01*
X180567471Y-86998395D01*
X180707930Y-87151707D01*
X180875600Y-87274671D01*
X181064037Y-87362561D01*
X181266000Y-87412000D01*
X181816000Y-87412000D01*
X181816000Y-86512000D01*
X182116000Y-86512000D01*
X182116000Y-87412000D01*
X182666000Y-87412000D01*
X182867963Y-87362561D01*
X183056400Y-87274671D01*
X183224070Y-87151707D01*
X183364529Y-86998395D01*
X183472379Y-86820627D01*
X183518970Y-86672725D01*
X184733030Y-86672725D01*
X184779621Y-86820627D01*
X184887471Y-86998395D01*
X185027930Y-87151707D01*
X185195600Y-87274671D01*
X185384037Y-87362561D01*
X185586000Y-87412000D01*
X185986000Y-87412000D01*
X185986000Y-86512000D01*
X186286000Y-86512000D01*
X186286000Y-87412000D01*
X186686000Y-87412000D01*
X186887963Y-87362561D01*
X187076400Y-87274671D01*
X187244070Y-87151707D01*
X187384529Y-86998395D01*
X187492379Y-86820627D01*
X187538970Y-86672725D01*
X187423412Y-86512000D01*
X186286000Y-86512000D01*
X185986000Y-86512000D01*
X184848588Y-86512000D01*
X184733030Y-86672725D01*
X183518970Y-86672725D01*
X183403412Y-86512000D01*
X182116000Y-86512000D01*
X181816000Y-86512000D01*
X180528588Y-86512000D01*
X180413030Y-86672725D01*
X141768500Y-86672725D01*
X141768500Y-82343500D01*
X141768018Y-82333698D01*
X141748803Y-82138608D01*
X141744979Y-82119382D01*
X141688074Y-81931789D01*
X141680572Y-81913677D01*
X141588162Y-81740790D01*
X141577271Y-81724491D01*
X141452908Y-81572954D01*
X141439046Y-81559092D01*
X141287509Y-81434729D01*
X141271210Y-81423838D01*
X141098323Y-81331428D01*
X141080211Y-81323926D01*
X140892618Y-81267021D01*
X140873392Y-81263197D01*
X140678302Y-81243982D01*
X140668500Y-81243500D01*
X133975000Y-81243500D01*
X133975000Y-80165509D01*
X141748000Y-80165509D01*
X141748000Y-80362491D01*
X141786429Y-80555689D01*
X141861811Y-80737678D01*
X141971249Y-80901463D01*
X142023000Y-80953214D01*
X142023001Y-82514393D01*
X142019494Y-82550000D01*
X142033492Y-82692124D01*
X142074947Y-82828787D01*
X142142269Y-82954736D01*
X142210170Y-83037474D01*
X142210173Y-83037477D01*
X142232869Y-83065132D01*
X142260523Y-83087827D01*
X143814241Y-84641545D01*
X143749249Y-84706537D01*
X143639811Y-84870322D01*
X143564429Y-85052311D01*
X143526000Y-85245509D01*
X143526000Y-85442491D01*
X143564429Y-85635689D01*
X143639811Y-85817678D01*
X143749249Y-85981463D01*
X143888537Y-86120751D01*
X144052322Y-86230189D01*
X144234311Y-86305571D01*
X144427509Y-86344000D01*
X144624491Y-86344000D01*
X144817689Y-86305571D01*
X144999678Y-86230189D01*
X145163463Y-86120751D01*
X145215214Y-86069000D01*
X173554786Y-86069000D01*
X173606537Y-86120751D01*
X173770322Y-86230189D01*
X173952311Y-86305571D01*
X174145509Y-86344000D01*
X174342491Y-86344000D01*
X174535689Y-86305571D01*
X174717678Y-86230189D01*
X174881463Y-86120751D01*
X174950939Y-86051275D01*
X180413030Y-86051275D01*
X180528588Y-86212000D01*
X181816000Y-86212000D01*
X181816000Y-86192000D01*
X182116000Y-86192000D01*
X182116000Y-86212000D01*
X183403412Y-86212000D01*
X183518970Y-86051275D01*
X184733030Y-86051275D01*
X184848588Y-86212000D01*
X185986000Y-86212000D01*
X185986000Y-85312000D01*
X186286000Y-85312000D01*
X186286000Y-86212000D01*
X187423412Y-86212000D01*
X187538970Y-86051275D01*
X187492379Y-85903373D01*
X187384529Y-85725605D01*
X187244070Y-85572293D01*
X187076400Y-85449329D01*
X186887963Y-85361439D01*
X186686000Y-85312000D01*
X186286000Y-85312000D01*
X185986000Y-85312000D01*
X185586000Y-85312000D01*
X185384037Y-85361439D01*
X185195600Y-85449329D01*
X185027930Y-85572293D01*
X184887471Y-85725605D01*
X184779621Y-85903373D01*
X184733030Y-86051275D01*
X183518970Y-86051275D01*
X183472379Y-85903373D01*
X183364529Y-85725605D01*
X183224070Y-85572293D01*
X183140089Y-85510704D01*
X183145076Y-85505717D01*
X183243570Y-85358310D01*
X183311414Y-85194520D01*
X183346000Y-85020642D01*
X183346000Y-84843358D01*
X183311414Y-84669480D01*
X183243570Y-84505690D01*
X183145076Y-84358283D01*
X183019717Y-84232924D01*
X182872310Y-84134430D01*
X182708520Y-84066586D01*
X182534642Y-84032000D01*
X182357358Y-84032000D01*
X182183480Y-84066586D01*
X182019690Y-84134430D01*
X181872283Y-84232924D01*
X181746924Y-84358283D01*
X181648430Y-84505690D01*
X181580586Y-84669480D01*
X181546000Y-84843358D01*
X181546000Y-85020642D01*
X181580586Y-85194520D01*
X181629248Y-85312000D01*
X181266000Y-85312000D01*
X181064037Y-85361439D01*
X180875600Y-85449329D01*
X180707930Y-85572293D01*
X180567471Y-85725605D01*
X180459621Y-85903373D01*
X180413030Y-86051275D01*
X174950939Y-86051275D01*
X175020751Y-85981463D01*
X175130189Y-85817678D01*
X175205571Y-85635689D01*
X175244000Y-85442491D01*
X175244000Y-85245509D01*
X175205571Y-85052311D01*
X175130189Y-84870322D01*
X175020751Y-84706537D01*
X174881463Y-84567249D01*
X174717678Y-84457811D01*
X174710892Y-84455000D01*
X174717678Y-84452189D01*
X174881463Y-84342751D01*
X175020751Y-84203463D01*
X175130189Y-84039678D01*
X175205571Y-83857689D01*
X175244000Y-83664491D01*
X175244000Y-83467509D01*
X175205571Y-83274311D01*
X175130189Y-83092322D01*
X175020751Y-82928537D01*
X174881463Y-82789249D01*
X174717678Y-82679811D01*
X174535689Y-82604429D01*
X174342491Y-82566000D01*
X174145509Y-82566000D01*
X173952311Y-82604429D01*
X173770322Y-82679811D01*
X173606537Y-82789249D01*
X173467249Y-82928537D01*
X173357811Y-83092322D01*
X173282429Y-83274311D01*
X173244000Y-83467509D01*
X173244000Y-83540695D01*
X172927696Y-83857000D01*
X145080305Y-83857000D01*
X143473000Y-82249696D01*
X143473000Y-80953214D01*
X143498705Y-80927509D01*
X145558000Y-80927509D01*
X145558000Y-81124491D01*
X145596429Y-81317689D01*
X145671811Y-81499678D01*
X145781249Y-81663463D01*
X145920537Y-81802751D01*
X146084322Y-81912189D01*
X146266311Y-81987571D01*
X146459509Y-82026000D01*
X146656491Y-82026000D01*
X146849689Y-81987571D01*
X147031678Y-81912189D01*
X147195463Y-81802751D01*
X147334751Y-81663463D01*
X147444189Y-81499678D01*
X147519571Y-81317689D01*
X147558000Y-81124491D01*
X147558000Y-81051304D01*
X147590000Y-81019304D01*
X147590000Y-81124491D01*
X147628429Y-81317689D01*
X147703811Y-81499678D01*
X147813249Y-81663463D01*
X147952537Y-81802751D01*
X148116322Y-81912189D01*
X148298311Y-81987571D01*
X148491509Y-82026000D01*
X148688491Y-82026000D01*
X148881689Y-81987571D01*
X149063678Y-81912189D01*
X149227463Y-81802751D01*
X149366751Y-81663463D01*
X149476189Y-81499678D01*
X149551571Y-81317689D01*
X149590000Y-81124491D01*
X149590000Y-81051305D01*
X149652305Y-80989000D01*
X152416000Y-80989000D01*
X152416000Y-81124491D01*
X152454429Y-81317689D01*
X152529811Y-81499678D01*
X152639249Y-81663463D01*
X152778537Y-81802751D01*
X152942322Y-81912189D01*
X153124311Y-81987571D01*
X153317509Y-82026000D01*
X153514491Y-82026000D01*
X153707689Y-81987571D01*
X153889678Y-81912189D01*
X154053463Y-81802751D01*
X154192751Y-81663463D01*
X154302094Y-81499820D01*
X159984403Y-81499820D01*
X160020000Y-81503326D01*
X160055597Y-81499820D01*
X160055607Y-81499820D01*
X160162125Y-81489329D01*
X160298788Y-81447873D01*
X160424737Y-81380551D01*
X160535132Y-81289952D01*
X160557832Y-81262292D01*
X162539477Y-79280648D01*
X162567132Y-79257952D01*
X162599781Y-79218170D01*
X162657731Y-79147557D01*
X162725053Y-79021608D01*
X162728953Y-79008751D01*
X162766509Y-78884945D01*
X162777000Y-78778427D01*
X162777000Y-78778417D01*
X162780506Y-78742820D01*
X162777000Y-78707223D01*
X162777000Y-78032725D01*
X180413030Y-78032725D01*
X180459621Y-78180627D01*
X180567471Y-78358395D01*
X180707930Y-78511707D01*
X180875600Y-78634671D01*
X181064037Y-78722561D01*
X181266000Y-78772000D01*
X181629248Y-78772000D01*
X181580586Y-78889480D01*
X181546000Y-79063358D01*
X181546000Y-79240642D01*
X181580586Y-79414520D01*
X181648430Y-79578310D01*
X181746924Y-79725717D01*
X181872283Y-79851076D01*
X182019690Y-79949570D01*
X182183480Y-80017414D01*
X182357358Y-80052000D01*
X182534642Y-80052000D01*
X182708520Y-80017414D01*
X182872310Y-79949570D01*
X183019717Y-79851076D01*
X183145076Y-79725717D01*
X183243570Y-79578310D01*
X183311414Y-79414520D01*
X183346000Y-79240642D01*
X183346000Y-79063358D01*
X183311414Y-78889480D01*
X183243570Y-78725690D01*
X183145076Y-78578283D01*
X183140089Y-78573296D01*
X183224070Y-78511707D01*
X183364529Y-78358395D01*
X183472379Y-78180627D01*
X183518970Y-78032725D01*
X184733030Y-78032725D01*
X184779621Y-78180627D01*
X184887471Y-78358395D01*
X185027930Y-78511707D01*
X185195600Y-78634671D01*
X185384037Y-78722561D01*
X185586000Y-78772000D01*
X185986000Y-78772000D01*
X185986000Y-77872000D01*
X186286000Y-77872000D01*
X186286000Y-78772000D01*
X186686000Y-78772000D01*
X186887963Y-78722561D01*
X187076400Y-78634671D01*
X187244070Y-78511707D01*
X187384529Y-78358395D01*
X187492379Y-78180627D01*
X187538970Y-78032725D01*
X187423412Y-77872000D01*
X186286000Y-77872000D01*
X185986000Y-77872000D01*
X184848588Y-77872000D01*
X184733030Y-78032725D01*
X183518970Y-78032725D01*
X183403412Y-77872000D01*
X182116000Y-77872000D01*
X182116000Y-77892000D01*
X181816000Y-77892000D01*
X181816000Y-77872000D01*
X180528588Y-77872000D01*
X180413030Y-78032725D01*
X162777000Y-78032725D01*
X162777000Y-77759596D01*
X162780506Y-77723999D01*
X162777000Y-77688402D01*
X162777000Y-77688393D01*
X162766509Y-77581875D01*
X162725053Y-77445212D01*
X162706914Y-77411275D01*
X180413030Y-77411275D01*
X180528588Y-77572000D01*
X181816000Y-77572000D01*
X181816000Y-76672000D01*
X182116000Y-76672000D01*
X182116000Y-77572000D01*
X183403412Y-77572000D01*
X183518970Y-77411275D01*
X184733030Y-77411275D01*
X184848588Y-77572000D01*
X185986000Y-77572000D01*
X185986000Y-76672000D01*
X186286000Y-76672000D01*
X186286000Y-77572000D01*
X187423412Y-77572000D01*
X187538970Y-77411275D01*
X187492379Y-77263373D01*
X187384529Y-77085605D01*
X187244070Y-76932293D01*
X187076400Y-76809329D01*
X186887963Y-76721439D01*
X186686000Y-76672000D01*
X186286000Y-76672000D01*
X185986000Y-76672000D01*
X185586000Y-76672000D01*
X185384037Y-76721439D01*
X185195600Y-76809329D01*
X185027930Y-76932293D01*
X184887471Y-77085605D01*
X184779621Y-77263373D01*
X184733030Y-77411275D01*
X183518970Y-77411275D01*
X183472379Y-77263373D01*
X183364529Y-77085605D01*
X183224070Y-76932293D01*
X183056400Y-76809329D01*
X182867963Y-76721439D01*
X182666000Y-76672000D01*
X182116000Y-76672000D01*
X181816000Y-76672000D01*
X181266000Y-76672000D01*
X181064037Y-76721439D01*
X180875600Y-76809329D01*
X180707930Y-76932293D01*
X180567471Y-77085605D01*
X180459621Y-77263373D01*
X180413030Y-77411275D01*
X162706914Y-77411275D01*
X162657731Y-77319263D01*
X162567131Y-77208868D01*
X162539476Y-77186172D01*
X162335832Y-76982528D01*
X162313132Y-76954868D01*
X162202737Y-76864269D01*
X162076788Y-76796947D01*
X161940125Y-76755491D01*
X161833607Y-76745000D01*
X161833597Y-76745000D01*
X161798000Y-76741494D01*
X161762403Y-76745000D01*
X158796305Y-76745000D01*
X158560425Y-76509121D01*
X158620189Y-76419678D01*
X158695571Y-76237689D01*
X158734000Y-76044491D01*
X158734000Y-75847509D01*
X158695571Y-75654311D01*
X158620189Y-75472322D01*
X158510751Y-75308537D01*
X158371463Y-75169249D01*
X158207678Y-75059811D01*
X158025689Y-74984429D01*
X157832491Y-74946000D01*
X157635509Y-74946000D01*
X157442311Y-74984429D01*
X157260322Y-75059811D01*
X157096537Y-75169249D01*
X156957249Y-75308537D01*
X156847811Y-75472322D01*
X156772429Y-75654311D01*
X156734000Y-75847509D01*
X156734000Y-76044491D01*
X156772429Y-76237689D01*
X156847811Y-76419678D01*
X156957249Y-76583463D01*
X157009000Y-76635214D01*
X157009000Y-76672403D01*
X157005494Y-76708000D01*
X157009000Y-76743597D01*
X157009000Y-76743607D01*
X157019491Y-76850125D01*
X157044380Y-76932170D01*
X157060947Y-76986787D01*
X157128269Y-77112736D01*
X157196170Y-77195474D01*
X157196173Y-77195477D01*
X157218869Y-77223132D01*
X157246523Y-77245827D01*
X157958172Y-77957477D01*
X157980868Y-77985132D01*
X158008523Y-78007828D01*
X158008525Y-78007830D01*
X158016426Y-78014314D01*
X158091263Y-78075731D01*
X158217212Y-78143053D01*
X158353875Y-78184509D01*
X158460393Y-78195000D01*
X158460403Y-78195000D01*
X158496000Y-78198506D01*
X158531597Y-78195000D01*
X159274000Y-78195000D01*
X159274000Y-78330491D01*
X159312429Y-78523689D01*
X159387811Y-78705678D01*
X159497249Y-78869463D01*
X159549000Y-78921214D01*
X159549000Y-78947695D01*
X159465696Y-79031000D01*
X147863596Y-79031000D01*
X147827999Y-79027494D01*
X147792402Y-79031000D01*
X147792393Y-79031000D01*
X147685875Y-79041491D01*
X147549212Y-79082947D01*
X147423263Y-79150269D01*
X147340525Y-79218170D01*
X147340523Y-79218172D01*
X147312868Y-79240868D01*
X147290172Y-79268523D01*
X146532696Y-80026000D01*
X146459509Y-80026000D01*
X146266311Y-80064429D01*
X146084322Y-80139811D01*
X145920537Y-80249249D01*
X145781249Y-80388537D01*
X145671811Y-80552322D01*
X145596429Y-80734311D01*
X145558000Y-80927509D01*
X143498705Y-80927509D01*
X143524751Y-80901463D01*
X143634189Y-80737678D01*
X143709571Y-80555689D01*
X143748000Y-80362491D01*
X143748000Y-80165509D01*
X143709571Y-79972311D01*
X143634189Y-79790322D01*
X143524751Y-79626537D01*
X143385463Y-79487249D01*
X143221678Y-79377811D01*
X143039689Y-79302429D01*
X142846491Y-79264000D01*
X142649509Y-79264000D01*
X142456311Y-79302429D01*
X142274322Y-79377811D01*
X142110537Y-79487249D01*
X141971249Y-79626537D01*
X141861811Y-79790322D01*
X141786429Y-79972311D01*
X141748000Y-80165509D01*
X133975000Y-80165509D01*
X133975000Y-69880566D01*
X133990224Y-69725300D01*
X134026438Y-69605355D01*
X134085264Y-69494718D01*
X134164454Y-69397623D01*
X134260997Y-69317755D01*
X134371212Y-69258162D01*
X134490911Y-69221109D01*
X134644180Y-69205000D01*
X138460704Y-69205000D01*
X138487688Y-69202342D01*
X138495510Y-69202397D01*
X138504195Y-69201545D01*
X138750698Y-69175637D01*
X138806175Y-69164249D01*
X138861834Y-69153632D01*
X138870188Y-69151110D01*
X139106964Y-69077815D01*
X139159235Y-69055842D01*
X139211705Y-69034643D01*
X139219409Y-69030547D01*
X139437439Y-68912659D01*
X139484407Y-68880979D01*
X139531804Y-68849963D01*
X139538566Y-68844448D01*
X139729546Y-68686455D01*
X139769482Y-68646239D01*
X139809933Y-68606627D01*
X139815490Y-68599909D01*
X139815496Y-68599903D01*
X139815500Y-68599896D01*
X139972150Y-68407826D01*
X140003516Y-68360616D01*
X140035502Y-68313902D01*
X140039653Y-68306226D01*
X140156016Y-68087378D01*
X140177608Y-68034992D01*
X140199917Y-67982941D01*
X140202495Y-67974611D01*
X140202498Y-67974604D01*
X140202499Y-67974597D01*
X140274137Y-67737324D01*
X140285139Y-67681760D01*
X140296918Y-67626346D01*
X140297830Y-67617667D01*
X140322017Y-67370989D01*
X140325000Y-67340704D01*
X140325000Y-65361652D01*
X140982618Y-65361652D01*
X140983014Y-65418299D01*
X140982618Y-65474945D01*
X140983470Y-65483630D01*
X141022333Y-65853384D01*
X141033722Y-65908868D01*
X141044338Y-65964517D01*
X141046860Y-65972871D01*
X141156802Y-66328035D01*
X141178765Y-66380281D01*
X141199974Y-66432777D01*
X141204070Y-66440481D01*
X141380902Y-66767526D01*
X141412586Y-66814500D01*
X141443597Y-66861890D01*
X141449105Y-66868643D01*
X141449111Y-66868651D01*
X141449118Y-66868658D01*
X141686101Y-67155122D01*
X141726284Y-67195025D01*
X141765930Y-67235510D01*
X141772653Y-67241072D01*
X142060770Y-67476055D01*
X142107980Y-67507421D01*
X142154694Y-67539407D01*
X142162359Y-67543551D01*
X142162368Y-67543557D01*
X142162377Y-67543561D01*
X142490642Y-67718103D01*
X142543041Y-67739700D01*
X142595079Y-67762004D01*
X142603409Y-67764582D01*
X142603416Y-67764585D01*
X142603423Y-67764586D01*
X142959338Y-67872044D01*
X143014910Y-67883048D01*
X143070317Y-67894825D01*
X143078991Y-67895737D01*
X143078995Y-67895737D01*
X143448445Y-67931961D01*
X143479296Y-67935000D01*
X179100704Y-67935000D01*
X179132880Y-67931831D01*
X179157587Y-67931831D01*
X179166266Y-67930919D01*
X179535740Y-67889476D01*
X179591130Y-67877702D01*
X179646717Y-67866696D01*
X179655053Y-67864115D01*
X180009440Y-67751697D01*
X180061517Y-67729377D01*
X180113879Y-67707795D01*
X180121550Y-67703647D01*
X180121554Y-67703645D01*
X180121557Y-67703643D01*
X180447358Y-67524533D01*
X180494137Y-67492503D01*
X180541280Y-67461181D01*
X180548004Y-67455619D01*
X180832812Y-67216637D01*
X180872441Y-67176169D01*
X180912641Y-67136249D01*
X180918156Y-67129487D01*
X181151122Y-66839736D01*
X181182169Y-66792292D01*
X181213816Y-66745373D01*
X181217910Y-66737673D01*
X181217913Y-66737669D01*
X181217915Y-66737665D01*
X181390162Y-66408186D01*
X181411387Y-66355654D01*
X181433334Y-66303443D01*
X181435856Y-66295089D01*
X181540828Y-65938424D01*
X181551446Y-65882764D01*
X181562833Y-65827292D01*
X181563685Y-65818608D01*
X181597382Y-65448348D01*
X181596986Y-65391702D01*
X181597382Y-65335055D01*
X181596530Y-65326370D01*
X181557667Y-64956616D01*
X181546273Y-64901107D01*
X181535662Y-64845482D01*
X181533140Y-64837129D01*
X181423198Y-64481965D01*
X181401240Y-64429730D01*
X181380026Y-64377223D01*
X181375930Y-64369518D01*
X181199098Y-64042474D01*
X181167396Y-63995473D01*
X181136402Y-63948110D01*
X181130887Y-63941347D01*
X180893898Y-63654878D01*
X180853719Y-63614978D01*
X180814071Y-63574491D01*
X180807347Y-63568928D01*
X180519230Y-63333945D01*
X180472020Y-63302579D01*
X180425306Y-63270593D01*
X180417641Y-63266449D01*
X180417632Y-63266443D01*
X180417623Y-63266439D01*
X180089358Y-63091898D01*
X180036978Y-63070308D01*
X179984920Y-63047996D01*
X179976584Y-63045415D01*
X179620662Y-62937956D01*
X179565083Y-62926951D01*
X179509683Y-62915175D01*
X179501010Y-62914264D01*
X179501007Y-62914263D01*
X179501004Y-62914263D01*
X179131556Y-62878039D01*
X179100704Y-62875000D01*
X143479296Y-62875000D01*
X143447120Y-62878169D01*
X143422413Y-62878169D01*
X143413734Y-62879081D01*
X143044260Y-62920524D01*
X142988870Y-62932298D01*
X142933283Y-62943304D01*
X142924947Y-62945885D01*
X142570560Y-63058303D01*
X142518496Y-63080617D01*
X142466120Y-63102205D01*
X142458444Y-63106356D01*
X142132642Y-63285468D01*
X142085889Y-63317480D01*
X142038720Y-63348819D01*
X142031996Y-63354381D01*
X141747188Y-63593363D01*
X141707543Y-63633847D01*
X141667359Y-63673751D01*
X141661849Y-63680508D01*
X141661844Y-63680513D01*
X141661840Y-63680518D01*
X141428878Y-63970264D01*
X141397852Y-64017677D01*
X141366183Y-64064628D01*
X141362090Y-64072327D01*
X141362087Y-64072331D01*
X141362087Y-64072332D01*
X141189838Y-64401814D01*
X141168613Y-64454346D01*
X141146666Y-64506557D01*
X141144144Y-64514911D01*
X141039172Y-64871576D01*
X141028554Y-64927236D01*
X141017167Y-64982708D01*
X141016315Y-64991393D01*
X140982618Y-65361652D01*
X140325000Y-65361652D01*
X140325000Y-63530566D01*
X140340224Y-63375300D01*
X140376438Y-63255355D01*
X140435264Y-63144718D01*
X140514454Y-63047623D01*
X140610997Y-62967755D01*
X140721212Y-62908162D01*
X140840911Y-62871109D01*
X140994180Y-62855000D01*
X181579434Y-62855000D01*
X181734700Y-62870224D01*
%TA.AperFunction,Conductor*%
D18*
G36*
X181734700Y-62870224D02*
G01*
X181854645Y-62906438D01*
X181965282Y-62965264D01*
X182062377Y-63044454D01*
X182142245Y-63140997D01*
X182201838Y-63251212D01*
X182238891Y-63370911D01*
X182255000Y-63524180D01*
X182255001Y-66705704D01*
X182257701Y-66733114D01*
X182257618Y-66744945D01*
X182258470Y-66753630D01*
X182297333Y-67123384D01*
X182308722Y-67178868D01*
X182319338Y-67234517D01*
X182321860Y-67242871D01*
X182431802Y-67598035D01*
X182453765Y-67650281D01*
X182474974Y-67702777D01*
X182479070Y-67710481D01*
X182655902Y-68037526D01*
X182687586Y-68084500D01*
X182718597Y-68131890D01*
X182724105Y-68138643D01*
X182724111Y-68138651D01*
X182724118Y-68138658D01*
X182961101Y-68425122D01*
X183001284Y-68465025D01*
X183040930Y-68505510D01*
X183047653Y-68511072D01*
X183335770Y-68746055D01*
X183382980Y-68777421D01*
X183429694Y-68809407D01*
X183437359Y-68813551D01*
X183437368Y-68813557D01*
X183437377Y-68813561D01*
X183765642Y-68988103D01*
X183818041Y-69009700D01*
X183870079Y-69032004D01*
X183878409Y-69034582D01*
X183878416Y-69034585D01*
X183878423Y-69034586D01*
X184234338Y-69142044D01*
X184289910Y-69153048D01*
X184345317Y-69164825D01*
X184353991Y-69165737D01*
X184353995Y-69165737D01*
X184723445Y-69201961D01*
X184754296Y-69205000D01*
X187929434Y-69205000D01*
X188084700Y-69220224D01*
X188204645Y-69256438D01*
X188315282Y-69315264D01*
X188412377Y-69394454D01*
X188492245Y-69490997D01*
X188551838Y-69601212D01*
X188588891Y-69720911D01*
X188605000Y-69874180D01*
X188605001Y-100934424D01*
X188589776Y-101089700D01*
X188553562Y-101209646D01*
X188494737Y-101320279D01*
X188415547Y-101417376D01*
X188319005Y-101497244D01*
X188208787Y-101556838D01*
X188089089Y-101593891D01*
X187935820Y-101610000D01*
X184119296Y-101610000D01*
X184092312Y-101612658D01*
X184084490Y-101612603D01*
X184075805Y-101613455D01*
X183829302Y-101639363D01*
X183773819Y-101650752D01*
X183718166Y-101661368D01*
X183709812Y-101663890D01*
X183473036Y-101737185D01*
X183420765Y-101759158D01*
X183368295Y-101780357D01*
X183360590Y-101784453D01*
X183142561Y-101902341D01*
X183095593Y-101934021D01*
X183048196Y-101965037D01*
X183041434Y-101970552D01*
X182850454Y-102128545D01*
X182810518Y-102168761D01*
X182770067Y-102208373D01*
X182764504Y-102215097D01*
X182607850Y-102407175D01*
X182576501Y-102454359D01*
X182544497Y-102501099D01*
X182540347Y-102508775D01*
X182423984Y-102727622D01*
X182402397Y-102779997D01*
X182380083Y-102832059D01*
X182377503Y-102840395D01*
X182305863Y-103077676D01*
X182294861Y-103133240D01*
X182283082Y-103188654D01*
X182282170Y-103197333D01*
X182257983Y-103444011D01*
X182257983Y-103444019D01*
X182255001Y-103474296D01*
X182255000Y-107284434D01*
X182239776Y-107439700D01*
X182203562Y-107559646D01*
X182144737Y-107670279D01*
X182065547Y-107767376D01*
X181969005Y-107847244D01*
X181858787Y-107906838D01*
X181739089Y-107943891D01*
X181585820Y-107960000D01*
X141000566Y-107960000D01*
X140845300Y-107944776D01*
X140725354Y-107908562D01*
X140614721Y-107849737D01*
X140517624Y-107770547D01*
X140437756Y-107674005D01*
X140378162Y-107563787D01*
X140341109Y-107444089D01*
X140325000Y-107290820D01*
X140325000Y-105366652D01*
X140982618Y-105366652D01*
X140983014Y-105423298D01*
X140982618Y-105479945D01*
X140983470Y-105488630D01*
X141022333Y-105858384D01*
X141033722Y-105913868D01*
X141044338Y-105969517D01*
X141046860Y-105977871D01*
X141156802Y-106333035D01*
X141178765Y-106385281D01*
X141199974Y-106437777D01*
X141204070Y-106445481D01*
X141380902Y-106772526D01*
X141412586Y-106819500D01*
X141443597Y-106866890D01*
X141449105Y-106873643D01*
X141449111Y-106873651D01*
X141449118Y-106873658D01*
X141686101Y-107160122D01*
X141726284Y-107200025D01*
X141765930Y-107240510D01*
X141772653Y-107246072D01*
X142060770Y-107481055D01*
X142107980Y-107512421D01*
X142154694Y-107544407D01*
X142162359Y-107548551D01*
X142162368Y-107548557D01*
X142162377Y-107548561D01*
X142490642Y-107723103D01*
X142543041Y-107744700D01*
X142595079Y-107767004D01*
X142603409Y-107769582D01*
X142603416Y-107769585D01*
X142603423Y-107769586D01*
X142959338Y-107877044D01*
X143014910Y-107888048D01*
X143070317Y-107899825D01*
X143078991Y-107900737D01*
X143078995Y-107900737D01*
X143448445Y-107936961D01*
X143479296Y-107940000D01*
X179100704Y-107940000D01*
X179132880Y-107936831D01*
X179157587Y-107936831D01*
X179166266Y-107935919D01*
X179535740Y-107894476D01*
X179591130Y-107882702D01*
X179646717Y-107871696D01*
X179655053Y-107869115D01*
X180009440Y-107756697D01*
X180061517Y-107734377D01*
X180113879Y-107712795D01*
X180121550Y-107708647D01*
X180121554Y-107708645D01*
X180121557Y-107708643D01*
X180447358Y-107529533D01*
X180494137Y-107497503D01*
X180541280Y-107466181D01*
X180548004Y-107460619D01*
X180832812Y-107221637D01*
X180872441Y-107181169D01*
X180912641Y-107141249D01*
X180918156Y-107134487D01*
X181151122Y-106844736D01*
X181182169Y-106797292D01*
X181213816Y-106750373D01*
X181217910Y-106742673D01*
X181217913Y-106742669D01*
X181217915Y-106742665D01*
X181390162Y-106413186D01*
X181411387Y-106360654D01*
X181433334Y-106308443D01*
X181435856Y-106300089D01*
X181540828Y-105943424D01*
X181551446Y-105887764D01*
X181562833Y-105832292D01*
X181563685Y-105823608D01*
X181597382Y-105453348D01*
X181596986Y-105396702D01*
X181597382Y-105340055D01*
X181596530Y-105331370D01*
X181557667Y-104961616D01*
X181546273Y-104906107D01*
X181535662Y-104850482D01*
X181533140Y-104842129D01*
X181423198Y-104486965D01*
X181401240Y-104434730D01*
X181380026Y-104382223D01*
X181375930Y-104374518D01*
X181199098Y-104047474D01*
X181167396Y-104000473D01*
X181136402Y-103953110D01*
X181130887Y-103946347D01*
X180893898Y-103659878D01*
X180853719Y-103619978D01*
X180814071Y-103579491D01*
X180807347Y-103573928D01*
X180519230Y-103338945D01*
X180472020Y-103307579D01*
X180425306Y-103275593D01*
X180417641Y-103271449D01*
X180417632Y-103271443D01*
X180417623Y-103271439D01*
X180089358Y-103096898D01*
X180036978Y-103075308D01*
X179984920Y-103052996D01*
X179976584Y-103050415D01*
X179620662Y-102942956D01*
X179565083Y-102931951D01*
X179509683Y-102920175D01*
X179501010Y-102919264D01*
X179501007Y-102919263D01*
X179501004Y-102919263D01*
X179131556Y-102883039D01*
X179100704Y-102880000D01*
X143479296Y-102880000D01*
X143447120Y-102883169D01*
X143422413Y-102883169D01*
X143413734Y-102884081D01*
X143044260Y-102925524D01*
X142988870Y-102937298D01*
X142933283Y-102948304D01*
X142924947Y-102950885D01*
X142570560Y-103063303D01*
X142518496Y-103085617D01*
X142466120Y-103107205D01*
X142458444Y-103111356D01*
X142132642Y-103290468D01*
X142085889Y-103322480D01*
X142038720Y-103353819D01*
X142031996Y-103359381D01*
X141747188Y-103598363D01*
X141707543Y-103638847D01*
X141667359Y-103678751D01*
X141661849Y-103685508D01*
X141661844Y-103685513D01*
X141661840Y-103685518D01*
X141428878Y-103975264D01*
X141397852Y-104022677D01*
X141366183Y-104069628D01*
X141362090Y-104077327D01*
X141362087Y-104077331D01*
X141362087Y-104077332D01*
X141189838Y-104406814D01*
X141168613Y-104459346D01*
X141146666Y-104511557D01*
X141144144Y-104519911D01*
X141039172Y-104876576D01*
X141028554Y-104932236D01*
X141017167Y-104987708D01*
X141016315Y-104996393D01*
X140982618Y-105366652D01*
X140325000Y-105366652D01*
X140325000Y-103474296D01*
X140322342Y-103447304D01*
X140322397Y-103439490D01*
X140321545Y-103430805D01*
X140295637Y-103184302D01*
X140284248Y-103128819D01*
X140273632Y-103073166D01*
X140271110Y-103064812D01*
X140197815Y-102828036D01*
X140175842Y-102775765D01*
X140154643Y-102723295D01*
X140150547Y-102715590D01*
X140032659Y-102497561D01*
X140000979Y-102450593D01*
X139969963Y-102403196D01*
X139964448Y-102396434D01*
X139806455Y-102205454D01*
X139766239Y-102165518D01*
X139726627Y-102125067D01*
X139719903Y-102119504D01*
X139527825Y-101962850D01*
X139480641Y-101931501D01*
X139433901Y-101899497D01*
X139426225Y-101895347D01*
X139207378Y-101778984D01*
X139155003Y-101757397D01*
X139102941Y-101735083D01*
X139094605Y-101732503D01*
X139094607Y-101732503D01*
X139094599Y-101732501D01*
X138857324Y-101660863D01*
X138801760Y-101649861D01*
X138746346Y-101638082D01*
X138737671Y-101637170D01*
X138737667Y-101637170D01*
X138491557Y-101613039D01*
X138460704Y-101610000D01*
X134650566Y-101610000D01*
X134495300Y-101594776D01*
X134375354Y-101558562D01*
X134264721Y-101499737D01*
X134167624Y-101420547D01*
X134087756Y-101324005D01*
X134028162Y-101213787D01*
X133991109Y-101094089D01*
X133975000Y-100940820D01*
X133975000Y-99609712D01*
X134024281Y-99604500D01*
X140668500Y-99604500D01*
X140678302Y-99604018D01*
X140873392Y-99584803D01*
X140892618Y-99580979D01*
X141080211Y-99524074D01*
X141098323Y-99516572D01*
X141195585Y-99464584D01*
X160396000Y-99464584D01*
X160396000Y-99671416D01*
X160436350Y-99874274D01*
X160515502Y-100065362D01*
X160630411Y-100237336D01*
X160776664Y-100383589D01*
X160948638Y-100498498D01*
X161139726Y-100577650D01*
X161342584Y-100618000D01*
X161549416Y-100618000D01*
X161752274Y-100577650D01*
X161943362Y-100498498D01*
X162115336Y-100383589D01*
X162261589Y-100237336D01*
X162376498Y-100065362D01*
X162455650Y-99874274D01*
X162496000Y-99671416D01*
X162496000Y-99464584D01*
X167196000Y-99464584D01*
X167196000Y-99671416D01*
X167236350Y-99874274D01*
X167315502Y-100065362D01*
X167430411Y-100237336D01*
X167576664Y-100383589D01*
X167748638Y-100498498D01*
X167939726Y-100577650D01*
X168142584Y-100618000D01*
X168349416Y-100618000D01*
X168552274Y-100577650D01*
X168743362Y-100498498D01*
X168915336Y-100383589D01*
X169061589Y-100237336D01*
X169176498Y-100065362D01*
X169255650Y-99874274D01*
X169296000Y-99671416D01*
X169296000Y-99464584D01*
X169255650Y-99261726D01*
X169206472Y-99143000D01*
X171692097Y-99143000D01*
X171692097Y-99993000D01*
X171703682Y-100110621D01*
X171737990Y-100223721D01*
X171793704Y-100327955D01*
X171868683Y-100419317D01*
X171960045Y-100494296D01*
X172064279Y-100550010D01*
X172177379Y-100584318D01*
X172295000Y-100595903D01*
X173145000Y-100595903D01*
X173262621Y-100584318D01*
X173375721Y-100550010D01*
X173391703Y-100541467D01*
X173421018Y-100553610D01*
X173619046Y-100593000D01*
X173820954Y-100593000D01*
X174018982Y-100553610D01*
X174205520Y-100476344D01*
X174373400Y-100364170D01*
X174516170Y-100221400D01*
X174628344Y-100053520D01*
X174705610Y-99866982D01*
X174745000Y-99668954D01*
X174745000Y-99467046D01*
X174705610Y-99269018D01*
X174628344Y-99082480D01*
X174516170Y-98914600D01*
X174373400Y-98771830D01*
X174205520Y-98659656D01*
X174018982Y-98582390D01*
X173820954Y-98543000D01*
X173619046Y-98543000D01*
X173421018Y-98582390D01*
X173391703Y-98594533D01*
X173375721Y-98585990D01*
X173262621Y-98551682D01*
X173145000Y-98540097D01*
X172295000Y-98540097D01*
X172177379Y-98551682D01*
X172064279Y-98585990D01*
X171960045Y-98641704D01*
X171868683Y-98716683D01*
X171793704Y-98808045D01*
X171737990Y-98912279D01*
X171703682Y-99025379D01*
X171692097Y-99143000D01*
X169206472Y-99143000D01*
X169176498Y-99070638D01*
X169061589Y-98898664D01*
X168915336Y-98752411D01*
X168743362Y-98637502D01*
X168552274Y-98558350D01*
X168349416Y-98518000D01*
X168142584Y-98518000D01*
X167939726Y-98558350D01*
X167748638Y-98637502D01*
X167576664Y-98752411D01*
X167430411Y-98898664D01*
X167315502Y-99070638D01*
X167236350Y-99261726D01*
X167196000Y-99464584D01*
X162496000Y-99464584D01*
X162455650Y-99261726D01*
X162376498Y-99070638D01*
X162261589Y-98898664D01*
X162115336Y-98752411D01*
X161943362Y-98637502D01*
X161752274Y-98558350D01*
X161549416Y-98518000D01*
X161342584Y-98518000D01*
X161139726Y-98558350D01*
X160948638Y-98637502D01*
X160776664Y-98752411D01*
X160630411Y-98898664D01*
X160515502Y-99070638D01*
X160436350Y-99261726D01*
X160396000Y-99464584D01*
X141195585Y-99464584D01*
X141271210Y-99424162D01*
X141287509Y-99413271D01*
X141439046Y-99288908D01*
X141452908Y-99275046D01*
X141577271Y-99123509D01*
X141588162Y-99107210D01*
X141680572Y-98934323D01*
X141688074Y-98916211D01*
X141744979Y-98728618D01*
X141748803Y-98709392D01*
X141768018Y-98514302D01*
X141768500Y-98504500D01*
X141768500Y-91966520D01*
X164465612Y-91966520D01*
X164473120Y-92142420D01*
X164630196Y-92200401D01*
X164795566Y-92226623D01*
X164962873Y-92220079D01*
X165125689Y-92181021D01*
X165218880Y-92142420D01*
X165226388Y-91966520D01*
X164846000Y-91586132D01*
X164465612Y-91966520D01*
X141768500Y-91966520D01*
X141768500Y-90373566D01*
X163418377Y-90373566D01*
X163424921Y-90540873D01*
X163463979Y-90703689D01*
X163502580Y-90796880D01*
X163678480Y-90804388D01*
X164058868Y-90424000D01*
X163678480Y-90043612D01*
X163502580Y-90051120D01*
X163444599Y-90208196D01*
X163418377Y-90373566D01*
X141768500Y-90373566D01*
X141768500Y-89831480D01*
X163890612Y-89831480D01*
X164271000Y-90211868D01*
X164285143Y-90197726D01*
X164497275Y-90409858D01*
X164483132Y-90424000D01*
X164497275Y-90438143D01*
X164285143Y-90650275D01*
X164271000Y-90636132D01*
X163890612Y-91016520D01*
X163898120Y-91192420D01*
X164007755Y-91232889D01*
X163993377Y-91323566D01*
X163999921Y-91490873D01*
X164038979Y-91653689D01*
X164077580Y-91746880D01*
X164253480Y-91754388D01*
X164633868Y-91374000D01*
X164619726Y-91359858D01*
X164831858Y-91147726D01*
X164846000Y-91161868D01*
X164860143Y-91147726D01*
X165072275Y-91359858D01*
X165058132Y-91374000D01*
X165438520Y-91754388D01*
X165614420Y-91746880D01*
X165672401Y-91589804D01*
X165698623Y-91424434D01*
X165692079Y-91257127D01*
X165686626Y-91234395D01*
X165700689Y-91231021D01*
X165793880Y-91192420D01*
X165801388Y-91016520D01*
X165421000Y-90636132D01*
X165406858Y-90650275D01*
X165194726Y-90438143D01*
X165208868Y-90424000D01*
X165633132Y-90424000D01*
X166013520Y-90804388D01*
X166189420Y-90796880D01*
X166247401Y-90639804D01*
X166273623Y-90474434D01*
X166267079Y-90307127D01*
X166228021Y-90144311D01*
X166189420Y-90051120D01*
X166013520Y-90043612D01*
X165633132Y-90424000D01*
X165208868Y-90424000D01*
X165194726Y-90409858D01*
X165406858Y-90197726D01*
X165421000Y-90211868D01*
X165801388Y-89831480D01*
X165793880Y-89655580D01*
X165684245Y-89615111D01*
X165698623Y-89524434D01*
X165692079Y-89357127D01*
X165653021Y-89194311D01*
X165614420Y-89101120D01*
X165438520Y-89093612D01*
X165058132Y-89474000D01*
X165072275Y-89488143D01*
X164860143Y-89700275D01*
X164846000Y-89686132D01*
X164831858Y-89700275D01*
X164619726Y-89488143D01*
X164633868Y-89474000D01*
X164253480Y-89093612D01*
X164077580Y-89101120D01*
X164019599Y-89258196D01*
X163993377Y-89423566D01*
X163999921Y-89590873D01*
X164005374Y-89613605D01*
X163991311Y-89616979D01*
X163898120Y-89655580D01*
X163890612Y-89831480D01*
X141768500Y-89831480D01*
X141768500Y-88881480D01*
X164465612Y-88881480D01*
X164846000Y-89261868D01*
X165226388Y-88881480D01*
X165218880Y-88705580D01*
X165061804Y-88647599D01*
X164896434Y-88621377D01*
X164729127Y-88627921D01*
X164566311Y-88666979D01*
X164473120Y-88705580D01*
X164465612Y-88881480D01*
X141768500Y-88881480D01*
X141768500Y-86672725D01*
X180413030Y-86672725D01*
X180459621Y-86820627D01*
X180567471Y-86998395D01*
X180707930Y-87151707D01*
X180875600Y-87274671D01*
X181064037Y-87362561D01*
X181266000Y-87412000D01*
X181816000Y-87412000D01*
X181816000Y-86512000D01*
X182116000Y-86512000D01*
X182116000Y-87412000D01*
X182666000Y-87412000D01*
X182867963Y-87362561D01*
X183056400Y-87274671D01*
X183224070Y-87151707D01*
X183364529Y-86998395D01*
X183472379Y-86820627D01*
X183518970Y-86672725D01*
X184733030Y-86672725D01*
X184779621Y-86820627D01*
X184887471Y-86998395D01*
X185027930Y-87151707D01*
X185195600Y-87274671D01*
X185384037Y-87362561D01*
X185586000Y-87412000D01*
X185986000Y-87412000D01*
X185986000Y-86512000D01*
X186286000Y-86512000D01*
X186286000Y-87412000D01*
X186686000Y-87412000D01*
X186887963Y-87362561D01*
X187076400Y-87274671D01*
X187244070Y-87151707D01*
X187384529Y-86998395D01*
X187492379Y-86820627D01*
X187538970Y-86672725D01*
X187423412Y-86512000D01*
X186286000Y-86512000D01*
X185986000Y-86512000D01*
X184848588Y-86512000D01*
X184733030Y-86672725D01*
X183518970Y-86672725D01*
X183403412Y-86512000D01*
X182116000Y-86512000D01*
X181816000Y-86512000D01*
X180528588Y-86512000D01*
X180413030Y-86672725D01*
X141768500Y-86672725D01*
X141768500Y-82343500D01*
X141768018Y-82333698D01*
X141748803Y-82138608D01*
X141744979Y-82119382D01*
X141688074Y-81931789D01*
X141680572Y-81913677D01*
X141588162Y-81740790D01*
X141577271Y-81724491D01*
X141452908Y-81572954D01*
X141439046Y-81559092D01*
X141287509Y-81434729D01*
X141271210Y-81423838D01*
X141098323Y-81331428D01*
X141080211Y-81323926D01*
X140892618Y-81267021D01*
X140873392Y-81263197D01*
X140678302Y-81243982D01*
X140668500Y-81243500D01*
X133975000Y-81243500D01*
X133975000Y-80165509D01*
X141748000Y-80165509D01*
X141748000Y-80362491D01*
X141786429Y-80555689D01*
X141861811Y-80737678D01*
X141971249Y-80901463D01*
X142023000Y-80953214D01*
X142023001Y-82514393D01*
X142019494Y-82550000D01*
X142033492Y-82692124D01*
X142074947Y-82828787D01*
X142142269Y-82954736D01*
X142210170Y-83037474D01*
X142210173Y-83037477D01*
X142232869Y-83065132D01*
X142260523Y-83087827D01*
X143814241Y-84641545D01*
X143749249Y-84706537D01*
X143639811Y-84870322D01*
X143564429Y-85052311D01*
X143526000Y-85245509D01*
X143526000Y-85442491D01*
X143564429Y-85635689D01*
X143639811Y-85817678D01*
X143749249Y-85981463D01*
X143888537Y-86120751D01*
X144052322Y-86230189D01*
X144234311Y-86305571D01*
X144427509Y-86344000D01*
X144624491Y-86344000D01*
X144817689Y-86305571D01*
X144999678Y-86230189D01*
X145163463Y-86120751D01*
X145215214Y-86069000D01*
X173554786Y-86069000D01*
X173606537Y-86120751D01*
X173770322Y-86230189D01*
X173952311Y-86305571D01*
X174145509Y-86344000D01*
X174342491Y-86344000D01*
X174535689Y-86305571D01*
X174717678Y-86230189D01*
X174881463Y-86120751D01*
X174950939Y-86051275D01*
X180413030Y-86051275D01*
X180528588Y-86212000D01*
X181816000Y-86212000D01*
X181816000Y-86192000D01*
X182116000Y-86192000D01*
X182116000Y-86212000D01*
X183403412Y-86212000D01*
X183518970Y-86051275D01*
X184733030Y-86051275D01*
X184848588Y-86212000D01*
X185986000Y-86212000D01*
X185986000Y-85312000D01*
X186286000Y-85312000D01*
X186286000Y-86212000D01*
X187423412Y-86212000D01*
X187538970Y-86051275D01*
X187492379Y-85903373D01*
X187384529Y-85725605D01*
X187244070Y-85572293D01*
X187076400Y-85449329D01*
X186887963Y-85361439D01*
X186686000Y-85312000D01*
X186286000Y-85312000D01*
X185986000Y-85312000D01*
X185586000Y-85312000D01*
X185384037Y-85361439D01*
X185195600Y-85449329D01*
X185027930Y-85572293D01*
X184887471Y-85725605D01*
X184779621Y-85903373D01*
X184733030Y-86051275D01*
X183518970Y-86051275D01*
X183472379Y-85903373D01*
X183364529Y-85725605D01*
X183224070Y-85572293D01*
X183140089Y-85510704D01*
X183145076Y-85505717D01*
X183243570Y-85358310D01*
X183311414Y-85194520D01*
X183346000Y-85020642D01*
X183346000Y-84843358D01*
X183311414Y-84669480D01*
X183243570Y-84505690D01*
X183145076Y-84358283D01*
X183019717Y-84232924D01*
X182872310Y-84134430D01*
X182708520Y-84066586D01*
X182534642Y-84032000D01*
X182357358Y-84032000D01*
X182183480Y-84066586D01*
X182019690Y-84134430D01*
X181872283Y-84232924D01*
X181746924Y-84358283D01*
X181648430Y-84505690D01*
X181580586Y-84669480D01*
X181546000Y-84843358D01*
X181546000Y-85020642D01*
X181580586Y-85194520D01*
X181629248Y-85312000D01*
X181266000Y-85312000D01*
X181064037Y-85361439D01*
X180875600Y-85449329D01*
X180707930Y-85572293D01*
X180567471Y-85725605D01*
X180459621Y-85903373D01*
X180413030Y-86051275D01*
X174950939Y-86051275D01*
X175020751Y-85981463D01*
X175130189Y-85817678D01*
X175205571Y-85635689D01*
X175244000Y-85442491D01*
X175244000Y-85245509D01*
X175205571Y-85052311D01*
X175130189Y-84870322D01*
X175020751Y-84706537D01*
X174881463Y-84567249D01*
X174717678Y-84457811D01*
X174710892Y-84455000D01*
X174717678Y-84452189D01*
X174881463Y-84342751D01*
X175020751Y-84203463D01*
X175130189Y-84039678D01*
X175205571Y-83857689D01*
X175244000Y-83664491D01*
X175244000Y-83467509D01*
X175205571Y-83274311D01*
X175130189Y-83092322D01*
X175020751Y-82928537D01*
X174881463Y-82789249D01*
X174717678Y-82679811D01*
X174535689Y-82604429D01*
X174342491Y-82566000D01*
X174145509Y-82566000D01*
X173952311Y-82604429D01*
X173770322Y-82679811D01*
X173606537Y-82789249D01*
X173467249Y-82928537D01*
X173357811Y-83092322D01*
X173282429Y-83274311D01*
X173244000Y-83467509D01*
X173244000Y-83540695D01*
X172927696Y-83857000D01*
X145080305Y-83857000D01*
X143473000Y-82249696D01*
X143473000Y-80953214D01*
X143498705Y-80927509D01*
X145558000Y-80927509D01*
X145558000Y-81124491D01*
X145596429Y-81317689D01*
X145671811Y-81499678D01*
X145781249Y-81663463D01*
X145920537Y-81802751D01*
X146084322Y-81912189D01*
X146266311Y-81987571D01*
X146459509Y-82026000D01*
X146656491Y-82026000D01*
X146849689Y-81987571D01*
X147031678Y-81912189D01*
X147195463Y-81802751D01*
X147334751Y-81663463D01*
X147444189Y-81499678D01*
X147519571Y-81317689D01*
X147558000Y-81124491D01*
X147558000Y-81051304D01*
X147590000Y-81019304D01*
X147590000Y-81124491D01*
X147628429Y-81317689D01*
X147703811Y-81499678D01*
X147813249Y-81663463D01*
X147952537Y-81802751D01*
X148116322Y-81912189D01*
X148298311Y-81987571D01*
X148491509Y-82026000D01*
X148688491Y-82026000D01*
X148881689Y-81987571D01*
X149063678Y-81912189D01*
X149227463Y-81802751D01*
X149366751Y-81663463D01*
X149476189Y-81499678D01*
X149551571Y-81317689D01*
X149590000Y-81124491D01*
X149590000Y-81051305D01*
X149652305Y-80989000D01*
X152416000Y-80989000D01*
X152416000Y-81124491D01*
X152454429Y-81317689D01*
X152529811Y-81499678D01*
X152639249Y-81663463D01*
X152778537Y-81802751D01*
X152942322Y-81912189D01*
X153124311Y-81987571D01*
X153317509Y-82026000D01*
X153514491Y-82026000D01*
X153707689Y-81987571D01*
X153889678Y-81912189D01*
X154053463Y-81802751D01*
X154192751Y-81663463D01*
X154302094Y-81499820D01*
X159984403Y-81499820D01*
X160020000Y-81503326D01*
X160055597Y-81499820D01*
X160055607Y-81499820D01*
X160162125Y-81489329D01*
X160298788Y-81447873D01*
X160424737Y-81380551D01*
X160535132Y-81289952D01*
X160557832Y-81262292D01*
X162539477Y-79280648D01*
X162567132Y-79257952D01*
X162599781Y-79218170D01*
X162657731Y-79147557D01*
X162725053Y-79021608D01*
X162728953Y-79008751D01*
X162766509Y-78884945D01*
X162777000Y-78778427D01*
X162777000Y-78778417D01*
X162780506Y-78742820D01*
X162777000Y-78707223D01*
X162777000Y-78032725D01*
X180413030Y-78032725D01*
X180459621Y-78180627D01*
X180567471Y-78358395D01*
X180707930Y-78511707D01*
X180875600Y-78634671D01*
X181064037Y-78722561D01*
X181266000Y-78772000D01*
X181629248Y-78772000D01*
X181580586Y-78889480D01*
X181546000Y-79063358D01*
X181546000Y-79240642D01*
X181580586Y-79414520D01*
X181648430Y-79578310D01*
X181746924Y-79725717D01*
X181872283Y-79851076D01*
X182019690Y-79949570D01*
X182183480Y-80017414D01*
X182357358Y-80052000D01*
X182534642Y-80052000D01*
X182708520Y-80017414D01*
X182872310Y-79949570D01*
X183019717Y-79851076D01*
X183145076Y-79725717D01*
X183243570Y-79578310D01*
X183311414Y-79414520D01*
X183346000Y-79240642D01*
X183346000Y-79063358D01*
X183311414Y-78889480D01*
X183243570Y-78725690D01*
X183145076Y-78578283D01*
X183140089Y-78573296D01*
X183224070Y-78511707D01*
X183364529Y-78358395D01*
X183472379Y-78180627D01*
X183518970Y-78032725D01*
X184733030Y-78032725D01*
X184779621Y-78180627D01*
X184887471Y-78358395D01*
X185027930Y-78511707D01*
X185195600Y-78634671D01*
X185384037Y-78722561D01*
X185586000Y-78772000D01*
X185986000Y-78772000D01*
X185986000Y-77872000D01*
X186286000Y-77872000D01*
X186286000Y-78772000D01*
X186686000Y-78772000D01*
X186887963Y-78722561D01*
X187076400Y-78634671D01*
X187244070Y-78511707D01*
X187384529Y-78358395D01*
X187492379Y-78180627D01*
X187538970Y-78032725D01*
X187423412Y-77872000D01*
X186286000Y-77872000D01*
X185986000Y-77872000D01*
X184848588Y-77872000D01*
X184733030Y-78032725D01*
X183518970Y-78032725D01*
X183403412Y-77872000D01*
X182116000Y-77872000D01*
X182116000Y-77892000D01*
X181816000Y-77892000D01*
X181816000Y-77872000D01*
X180528588Y-77872000D01*
X180413030Y-78032725D01*
X162777000Y-78032725D01*
X162777000Y-77759596D01*
X162780506Y-77723999D01*
X162777000Y-77688402D01*
X162777000Y-77688393D01*
X162766509Y-77581875D01*
X162725053Y-77445212D01*
X162706914Y-77411275D01*
X180413030Y-77411275D01*
X180528588Y-77572000D01*
X181816000Y-77572000D01*
X181816000Y-76672000D01*
X182116000Y-76672000D01*
X182116000Y-77572000D01*
X183403412Y-77572000D01*
X183518970Y-77411275D01*
X184733030Y-77411275D01*
X184848588Y-77572000D01*
X185986000Y-77572000D01*
X185986000Y-76672000D01*
X186286000Y-76672000D01*
X186286000Y-77572000D01*
X187423412Y-77572000D01*
X187538970Y-77411275D01*
X187492379Y-77263373D01*
X187384529Y-77085605D01*
X187244070Y-76932293D01*
X187076400Y-76809329D01*
X186887963Y-76721439D01*
X186686000Y-76672000D01*
X186286000Y-76672000D01*
X185986000Y-76672000D01*
X185586000Y-76672000D01*
X185384037Y-76721439D01*
X185195600Y-76809329D01*
X185027930Y-76932293D01*
X184887471Y-77085605D01*
X184779621Y-77263373D01*
X184733030Y-77411275D01*
X183518970Y-77411275D01*
X183472379Y-77263373D01*
X183364529Y-77085605D01*
X183224070Y-76932293D01*
X183056400Y-76809329D01*
X182867963Y-76721439D01*
X182666000Y-76672000D01*
X182116000Y-76672000D01*
X181816000Y-76672000D01*
X181266000Y-76672000D01*
X181064037Y-76721439D01*
X180875600Y-76809329D01*
X180707930Y-76932293D01*
X180567471Y-77085605D01*
X180459621Y-77263373D01*
X180413030Y-77411275D01*
X162706914Y-77411275D01*
X162657731Y-77319263D01*
X162567131Y-77208868D01*
X162539476Y-77186172D01*
X162335832Y-76982528D01*
X162313132Y-76954868D01*
X162202737Y-76864269D01*
X162076788Y-76796947D01*
X161940125Y-76755491D01*
X161833607Y-76745000D01*
X161833597Y-76745000D01*
X161798000Y-76741494D01*
X161762403Y-76745000D01*
X158796305Y-76745000D01*
X158560425Y-76509121D01*
X158620189Y-76419678D01*
X158695571Y-76237689D01*
X158734000Y-76044491D01*
X158734000Y-75847509D01*
X158695571Y-75654311D01*
X158620189Y-75472322D01*
X158510751Y-75308537D01*
X158371463Y-75169249D01*
X158207678Y-75059811D01*
X158025689Y-74984429D01*
X157832491Y-74946000D01*
X157635509Y-74946000D01*
X157442311Y-74984429D01*
X157260322Y-75059811D01*
X157096537Y-75169249D01*
X156957249Y-75308537D01*
X156847811Y-75472322D01*
X156772429Y-75654311D01*
X156734000Y-75847509D01*
X156734000Y-76044491D01*
X156772429Y-76237689D01*
X156847811Y-76419678D01*
X156957249Y-76583463D01*
X157009000Y-76635214D01*
X157009000Y-76672403D01*
X157005494Y-76708000D01*
X157009000Y-76743597D01*
X157009000Y-76743607D01*
X157019491Y-76850125D01*
X157044380Y-76932170D01*
X157060947Y-76986787D01*
X157128269Y-77112736D01*
X157196170Y-77195474D01*
X157196173Y-77195477D01*
X157218869Y-77223132D01*
X157246523Y-77245827D01*
X157958172Y-77957477D01*
X157980868Y-77985132D01*
X158008523Y-78007828D01*
X158008525Y-78007830D01*
X158016426Y-78014314D01*
X158091263Y-78075731D01*
X158217212Y-78143053D01*
X158353875Y-78184509D01*
X158460393Y-78195000D01*
X158460403Y-78195000D01*
X158496000Y-78198506D01*
X158531597Y-78195000D01*
X159274000Y-78195000D01*
X159274000Y-78330491D01*
X159312429Y-78523689D01*
X159387811Y-78705678D01*
X159497249Y-78869463D01*
X159549000Y-78921214D01*
X159549000Y-78947695D01*
X159465696Y-79031000D01*
X147863596Y-79031000D01*
X147827999Y-79027494D01*
X147792402Y-79031000D01*
X147792393Y-79031000D01*
X147685875Y-79041491D01*
X147549212Y-79082947D01*
X147423263Y-79150269D01*
X147340525Y-79218170D01*
X147340523Y-79218172D01*
X147312868Y-79240868D01*
X147290172Y-79268523D01*
X146532696Y-80026000D01*
X146459509Y-80026000D01*
X146266311Y-80064429D01*
X146084322Y-80139811D01*
X145920537Y-80249249D01*
X145781249Y-80388537D01*
X145671811Y-80552322D01*
X145596429Y-80734311D01*
X145558000Y-80927509D01*
X143498705Y-80927509D01*
X143524751Y-80901463D01*
X143634189Y-80737678D01*
X143709571Y-80555689D01*
X143748000Y-80362491D01*
X143748000Y-80165509D01*
X143709571Y-79972311D01*
X143634189Y-79790322D01*
X143524751Y-79626537D01*
X143385463Y-79487249D01*
X143221678Y-79377811D01*
X143039689Y-79302429D01*
X142846491Y-79264000D01*
X142649509Y-79264000D01*
X142456311Y-79302429D01*
X142274322Y-79377811D01*
X142110537Y-79487249D01*
X141971249Y-79626537D01*
X141861811Y-79790322D01*
X141786429Y-79972311D01*
X141748000Y-80165509D01*
X133975000Y-80165509D01*
X133975000Y-69880566D01*
X133990224Y-69725300D01*
X134026438Y-69605355D01*
X134085264Y-69494718D01*
X134164454Y-69397623D01*
X134260997Y-69317755D01*
X134371212Y-69258162D01*
X134490911Y-69221109D01*
X134644180Y-69205000D01*
X138460704Y-69205000D01*
X138487688Y-69202342D01*
X138495510Y-69202397D01*
X138504195Y-69201545D01*
X138750698Y-69175637D01*
X138806175Y-69164249D01*
X138861834Y-69153632D01*
X138870188Y-69151110D01*
X139106964Y-69077815D01*
X139159235Y-69055842D01*
X139211705Y-69034643D01*
X139219409Y-69030547D01*
X139437439Y-68912659D01*
X139484407Y-68880979D01*
X139531804Y-68849963D01*
X139538566Y-68844448D01*
X139729546Y-68686455D01*
X139769482Y-68646239D01*
X139809933Y-68606627D01*
X139815490Y-68599909D01*
X139815496Y-68599903D01*
X139815500Y-68599896D01*
X139972150Y-68407826D01*
X140003516Y-68360616D01*
X140035502Y-68313902D01*
X140039653Y-68306226D01*
X140156016Y-68087378D01*
X140177608Y-68034992D01*
X140199917Y-67982941D01*
X140202495Y-67974611D01*
X140202498Y-67974604D01*
X140202499Y-67974597D01*
X140274137Y-67737324D01*
X140285139Y-67681760D01*
X140296918Y-67626346D01*
X140297830Y-67617667D01*
X140322017Y-67370989D01*
X140325000Y-67340704D01*
X140325000Y-65361652D01*
X140982618Y-65361652D01*
X140983014Y-65418299D01*
X140982618Y-65474945D01*
X140983470Y-65483630D01*
X141022333Y-65853384D01*
X141033722Y-65908868D01*
X141044338Y-65964517D01*
X141046860Y-65972871D01*
X141156802Y-66328035D01*
X141178765Y-66380281D01*
X141199974Y-66432777D01*
X141204070Y-66440481D01*
X141380902Y-66767526D01*
X141412586Y-66814500D01*
X141443597Y-66861890D01*
X141449105Y-66868643D01*
X141449111Y-66868651D01*
X141449118Y-66868658D01*
X141686101Y-67155122D01*
X141726284Y-67195025D01*
X141765930Y-67235510D01*
X141772653Y-67241072D01*
X142060770Y-67476055D01*
X142107980Y-67507421D01*
X142154694Y-67539407D01*
X142162359Y-67543551D01*
X142162368Y-67543557D01*
X142162377Y-67543561D01*
X142490642Y-67718103D01*
X142543041Y-67739700D01*
X142595079Y-67762004D01*
X142603409Y-67764582D01*
X142603416Y-67764585D01*
X142603423Y-67764586D01*
X142959338Y-67872044D01*
X143014910Y-67883048D01*
X143070317Y-67894825D01*
X143078991Y-67895737D01*
X143078995Y-67895737D01*
X143448445Y-67931961D01*
X143479296Y-67935000D01*
X179100704Y-67935000D01*
X179132880Y-67931831D01*
X179157587Y-67931831D01*
X179166266Y-67930919D01*
X179535740Y-67889476D01*
X179591130Y-67877702D01*
X179646717Y-67866696D01*
X179655053Y-67864115D01*
X180009440Y-67751697D01*
X180061517Y-67729377D01*
X180113879Y-67707795D01*
X180121550Y-67703647D01*
X180121554Y-67703645D01*
X180121557Y-67703643D01*
X180447358Y-67524533D01*
X180494137Y-67492503D01*
X180541280Y-67461181D01*
X180548004Y-67455619D01*
X180832812Y-67216637D01*
X180872441Y-67176169D01*
X180912641Y-67136249D01*
X180918156Y-67129487D01*
X181151122Y-66839736D01*
X181182169Y-66792292D01*
X181213816Y-66745373D01*
X181217910Y-66737673D01*
X181217913Y-66737669D01*
X181217915Y-66737665D01*
X181390162Y-66408186D01*
X181411387Y-66355654D01*
X181433334Y-66303443D01*
X181435856Y-66295089D01*
X181540828Y-65938424D01*
X181551446Y-65882764D01*
X181562833Y-65827292D01*
X181563685Y-65818608D01*
X181597382Y-65448348D01*
X181596986Y-65391702D01*
X181597382Y-65335055D01*
X181596530Y-65326370D01*
X181557667Y-64956616D01*
X181546273Y-64901107D01*
X181535662Y-64845482D01*
X181533140Y-64837129D01*
X181423198Y-64481965D01*
X181401240Y-64429730D01*
X181380026Y-64377223D01*
X181375930Y-64369518D01*
X181199098Y-64042474D01*
X181167396Y-63995473D01*
X181136402Y-63948110D01*
X181130887Y-63941347D01*
X180893898Y-63654878D01*
X180853719Y-63614978D01*
X180814071Y-63574491D01*
X180807347Y-63568928D01*
X180519230Y-63333945D01*
X180472020Y-63302579D01*
X180425306Y-63270593D01*
X180417641Y-63266449D01*
X180417632Y-63266443D01*
X180417623Y-63266439D01*
X180089358Y-63091898D01*
X180036978Y-63070308D01*
X179984920Y-63047996D01*
X179976584Y-63045415D01*
X179620662Y-62937956D01*
X179565083Y-62926951D01*
X179509683Y-62915175D01*
X179501010Y-62914264D01*
X179501007Y-62914263D01*
X179501004Y-62914263D01*
X179131556Y-62878039D01*
X179100704Y-62875000D01*
X143479296Y-62875000D01*
X143447120Y-62878169D01*
X143422413Y-62878169D01*
X143413734Y-62879081D01*
X143044260Y-62920524D01*
X142988870Y-62932298D01*
X142933283Y-62943304D01*
X142924947Y-62945885D01*
X142570560Y-63058303D01*
X142518496Y-63080617D01*
X142466120Y-63102205D01*
X142458444Y-63106356D01*
X142132642Y-63285468D01*
X142085889Y-63317480D01*
X142038720Y-63348819D01*
X142031996Y-63354381D01*
X141747188Y-63593363D01*
X141707543Y-63633847D01*
X141667359Y-63673751D01*
X141661849Y-63680508D01*
X141661844Y-63680513D01*
X141661840Y-63680518D01*
X141428878Y-63970264D01*
X141397852Y-64017677D01*
X141366183Y-64064628D01*
X141362090Y-64072327D01*
X141362087Y-64072331D01*
X141362087Y-64072332D01*
X141189838Y-64401814D01*
X141168613Y-64454346D01*
X141146666Y-64506557D01*
X141144144Y-64514911D01*
X141039172Y-64871576D01*
X141028554Y-64927236D01*
X141017167Y-64982708D01*
X141016315Y-64991393D01*
X140982618Y-65361652D01*
X140325000Y-65361652D01*
X140325000Y-63530566D01*
X140340224Y-63375300D01*
X140376438Y-63255355D01*
X140435264Y-63144718D01*
X140514454Y-63047623D01*
X140610997Y-62967755D01*
X140721212Y-62908162D01*
X140840911Y-62871109D01*
X140994180Y-62855000D01*
X181579434Y-62855000D01*
X181734700Y-62870224D01*
G37*
%TD.AperFunction*%
%TD*%
M02*
