%TF.GenerationSoftware,KiCad,Pcbnew,(5.1.10)-1*%
%TF.CreationDate,2021-12-11T22:37:13+01:00*%
%TF.ProjectId,tracker,74726163-6b65-4722-9e6b-696361645f70,rev?*%
%TF.SameCoordinates,Original*%
%TF.FileFunction,Soldermask,Top*%
%TF.FilePolarity,Negative*%
%FSLAX46Y46*%
G04 Gerber Fmt 4.6, Leading zero omitted, Abs format (unit mm)*
G04 Created by KiCad (PCBNEW (5.1.10)-1) date 2021-12-11 22:37:13*
%MOMM*%
%LPD*%
G01*
G04 APERTURE LIST*
%ADD10O,2.000000X0.900000*%
%ADD11O,1.700000X0.900000*%
%ADD12R,1.160000X0.300000*%
%ADD13C,0.600000*%
%ADD14R,1.160000X0.600000*%
%ADD15R,0.850000X0.850000*%
%ADD16O,0.850000X0.850000*%
%ADD17R,0.650000X0.400000*%
%ADD18R,1.550000X1.300000*%
%ADD19R,1.250000X2.500000*%
%ADD20C,0.900000*%
%ADD21R,0.254000X0.675000*%
%ADD22R,0.675000X0.254000*%
%ADD23R,0.650000X1.560000*%
%ADD24R,1.000000X2.500000*%
%ADD25R,1.800000X1.000000*%
%ADD26R,0.600000X0.240000*%
%ADD27C,0.100000*%
%ADD28R,2.500000X3.325000*%
%ADD29R,0.650000X1.500000*%
%ADD30R,3.600000X2.700000*%
G04 APERTURE END LIST*
%TO.C,L1*%
G36*
G01*
X162428500Y-89649000D02*
X160278500Y-89649000D01*
G75*
G02*
X160028500Y-89399000I0J250000D01*
G01*
X160028500Y-88474000D01*
G75*
G02*
X160278500Y-88224000I250000J0D01*
G01*
X162428500Y-88224000D01*
G75*
G02*
X162678500Y-88474000I0J-250000D01*
G01*
X162678500Y-89399000D01*
G75*
G02*
X162428500Y-89649000I-250000J0D01*
G01*
G37*
G36*
G01*
X162428500Y-92624000D02*
X160278500Y-92624000D01*
G75*
G02*
X160028500Y-92374000I0J250000D01*
G01*
X160028500Y-91449000D01*
G75*
G02*
X160278500Y-91199000I250000J0D01*
G01*
X162428500Y-91199000D01*
G75*
G02*
X162678500Y-91449000I0J-250000D01*
G01*
X162678500Y-92374000D01*
G75*
G02*
X162428500Y-92624000I-250000J0D01*
G01*
G37*
%TD*%
%TO.C,C1*%
G36*
G01*
X187425000Y-93890000D02*
X187225000Y-93890000D01*
G75*
G02*
X187125000Y-93790000I0J100000D01*
G01*
X187125000Y-93355000D01*
G75*
G02*
X187225000Y-93255000I100000J0D01*
G01*
X187425000Y-93255000D01*
G75*
G02*
X187525000Y-93355000I0J-100000D01*
G01*
X187525000Y-93790000D01*
G75*
G02*
X187425000Y-93890000I-100000J0D01*
G01*
G37*
G36*
G01*
X187425000Y-94705000D02*
X187225000Y-94705000D01*
G75*
G02*
X187125000Y-94605000I0J100000D01*
G01*
X187125000Y-94170000D01*
G75*
G02*
X187225000Y-94070000I100000J0D01*
G01*
X187425000Y-94070000D01*
G75*
G02*
X187525000Y-94170000I0J-100000D01*
G01*
X187525000Y-94605000D01*
G75*
G02*
X187425000Y-94705000I-100000J0D01*
G01*
G37*
%TD*%
%TO.C,C2*%
G36*
G01*
X155485000Y-75030000D02*
X155485000Y-74830000D01*
G75*
G02*
X155585000Y-74730000I100000J0D01*
G01*
X156020000Y-74730000D01*
G75*
G02*
X156120000Y-74830000I0J-100000D01*
G01*
X156120000Y-75030000D01*
G75*
G02*
X156020000Y-75130000I-100000J0D01*
G01*
X155585000Y-75130000D01*
G75*
G02*
X155485000Y-75030000I0J100000D01*
G01*
G37*
G36*
G01*
X156300000Y-75030000D02*
X156300000Y-74830000D01*
G75*
G02*
X156400000Y-74730000I100000J0D01*
G01*
X156835000Y-74730000D01*
G75*
G02*
X156935000Y-74830000I0J-100000D01*
G01*
X156935000Y-75030000D01*
G75*
G02*
X156835000Y-75130000I-100000J0D01*
G01*
X156400000Y-75130000D01*
G75*
G02*
X156300000Y-75030000I0J100000D01*
G01*
G37*
%TD*%
%TO.C,C3*%
G36*
G01*
X180440000Y-94705000D02*
X180240000Y-94705000D01*
G75*
G02*
X180140000Y-94605000I0J100000D01*
G01*
X180140000Y-94170000D01*
G75*
G02*
X180240000Y-94070000I100000J0D01*
G01*
X180440000Y-94070000D01*
G75*
G02*
X180540000Y-94170000I0J-100000D01*
G01*
X180540000Y-94605000D01*
G75*
G02*
X180440000Y-94705000I-100000J0D01*
G01*
G37*
G36*
G01*
X180440000Y-93890000D02*
X180240000Y-93890000D01*
G75*
G02*
X180140000Y-93790000I0J100000D01*
G01*
X180140000Y-93355000D01*
G75*
G02*
X180240000Y-93255000I100000J0D01*
G01*
X180440000Y-93255000D01*
G75*
G02*
X180540000Y-93355000I0J-100000D01*
G01*
X180540000Y-93790000D01*
G75*
G02*
X180440000Y-93890000I-100000J0D01*
G01*
G37*
%TD*%
%TO.C,C4*%
G36*
G01*
X168048000Y-75782000D02*
X168248000Y-75782000D01*
G75*
G02*
X168348000Y-75882000I0J-100000D01*
G01*
X168348000Y-76317000D01*
G75*
G02*
X168248000Y-76417000I-100000J0D01*
G01*
X168048000Y-76417000D01*
G75*
G02*
X167948000Y-76317000I0J100000D01*
G01*
X167948000Y-75882000D01*
G75*
G02*
X168048000Y-75782000I100000J0D01*
G01*
G37*
G36*
G01*
X168048000Y-74967000D02*
X168248000Y-74967000D01*
G75*
G02*
X168348000Y-75067000I0J-100000D01*
G01*
X168348000Y-75502000D01*
G75*
G02*
X168248000Y-75602000I-100000J0D01*
G01*
X168048000Y-75602000D01*
G75*
G02*
X167948000Y-75502000I0J100000D01*
G01*
X167948000Y-75067000D01*
G75*
G02*
X168048000Y-74967000I100000J0D01*
G01*
G37*
%TD*%
%TO.C,C5*%
G36*
G01*
X168248000Y-74131000D02*
X168048000Y-74131000D01*
G75*
G02*
X167948000Y-74031000I0J100000D01*
G01*
X167948000Y-73596000D01*
G75*
G02*
X168048000Y-73496000I100000J0D01*
G01*
X168248000Y-73496000D01*
G75*
G02*
X168348000Y-73596000I0J-100000D01*
G01*
X168348000Y-74031000D01*
G75*
G02*
X168248000Y-74131000I-100000J0D01*
G01*
G37*
G36*
G01*
X168248000Y-73316000D02*
X168048000Y-73316000D01*
G75*
G02*
X167948000Y-73216000I0J100000D01*
G01*
X167948000Y-72781000D01*
G75*
G02*
X168048000Y-72681000I100000J0D01*
G01*
X168248000Y-72681000D01*
G75*
G02*
X168348000Y-72781000I0J-100000D01*
G01*
X168348000Y-73216000D01*
G75*
G02*
X168248000Y-73316000I-100000J0D01*
G01*
G37*
%TD*%
%TO.C,C6*%
G36*
G01*
X173318000Y-98144000D02*
X173318000Y-97944000D01*
G75*
G02*
X173418000Y-97844000I100000J0D01*
G01*
X173853000Y-97844000D01*
G75*
G02*
X173953000Y-97944000I0J-100000D01*
G01*
X173953000Y-98144000D01*
G75*
G02*
X173853000Y-98244000I-100000J0D01*
G01*
X173418000Y-98244000D01*
G75*
G02*
X173318000Y-98144000I0J100000D01*
G01*
G37*
G36*
G01*
X172503000Y-98144000D02*
X172503000Y-97944000D01*
G75*
G02*
X172603000Y-97844000I100000J0D01*
G01*
X173038000Y-97844000D01*
G75*
G02*
X173138000Y-97944000I0J-100000D01*
G01*
X173138000Y-98144000D01*
G75*
G02*
X173038000Y-98244000I-100000J0D01*
G01*
X172603000Y-98244000D01*
G75*
G02*
X172503000Y-98144000I0J100000D01*
G01*
G37*
%TD*%
%TO.C,C7*%
G36*
G01*
X140171000Y-100484000D02*
X140171000Y-100684000D01*
G75*
G02*
X140071000Y-100784000I-100000J0D01*
G01*
X139636000Y-100784000D01*
G75*
G02*
X139536000Y-100684000I0J100000D01*
G01*
X139536000Y-100484000D01*
G75*
G02*
X139636000Y-100384000I100000J0D01*
G01*
X140071000Y-100384000D01*
G75*
G02*
X140171000Y-100484000I0J-100000D01*
G01*
G37*
G36*
G01*
X139356000Y-100484000D02*
X139356000Y-100684000D01*
G75*
G02*
X139256000Y-100784000I-100000J0D01*
G01*
X138821000Y-100784000D01*
G75*
G02*
X138721000Y-100684000I0J100000D01*
G01*
X138721000Y-100484000D01*
G75*
G02*
X138821000Y-100384000I100000J0D01*
G01*
X139256000Y-100384000D01*
G75*
G02*
X139356000Y-100484000I0J-100000D01*
G01*
G37*
%TD*%
%TO.C,C8*%
G36*
G01*
X163740000Y-93118000D02*
X163740000Y-93318000D01*
G75*
G02*
X163640000Y-93418000I-100000J0D01*
G01*
X163205000Y-93418000D01*
G75*
G02*
X163105000Y-93318000I0J100000D01*
G01*
X163105000Y-93118000D01*
G75*
G02*
X163205000Y-93018000I100000J0D01*
G01*
X163640000Y-93018000D01*
G75*
G02*
X163740000Y-93118000I0J-100000D01*
G01*
G37*
G36*
G01*
X164555000Y-93118000D02*
X164555000Y-93318000D01*
G75*
G02*
X164455000Y-93418000I-100000J0D01*
G01*
X164020000Y-93418000D01*
G75*
G02*
X163920000Y-93318000I0J100000D01*
G01*
X163920000Y-93118000D01*
G75*
G02*
X164020000Y-93018000I100000J0D01*
G01*
X164455000Y-93018000D01*
G75*
G02*
X164555000Y-93118000I0J-100000D01*
G01*
G37*
%TD*%
%TO.C,C9*%
G36*
G01*
X165137000Y-93318000D02*
X165137000Y-93118000D01*
G75*
G02*
X165237000Y-93018000I100000J0D01*
G01*
X165672000Y-93018000D01*
G75*
G02*
X165772000Y-93118000I0J-100000D01*
G01*
X165772000Y-93318000D01*
G75*
G02*
X165672000Y-93418000I-100000J0D01*
G01*
X165237000Y-93418000D01*
G75*
G02*
X165137000Y-93318000I0J100000D01*
G01*
G37*
G36*
G01*
X165952000Y-93318000D02*
X165952000Y-93118000D01*
G75*
G02*
X166052000Y-93018000I100000J0D01*
G01*
X166487000Y-93018000D01*
G75*
G02*
X166587000Y-93118000I0J-100000D01*
G01*
X166587000Y-93318000D01*
G75*
G02*
X166487000Y-93418000I-100000J0D01*
G01*
X166052000Y-93418000D01*
G75*
G02*
X165952000Y-93318000I0J100000D01*
G01*
G37*
%TD*%
%TO.C,C10*%
G36*
G01*
X164756000Y-87530000D02*
X164756000Y-87730000D01*
G75*
G02*
X164656000Y-87830000I-100000J0D01*
G01*
X164221000Y-87830000D01*
G75*
G02*
X164121000Y-87730000I0J100000D01*
G01*
X164121000Y-87530000D01*
G75*
G02*
X164221000Y-87430000I100000J0D01*
G01*
X164656000Y-87430000D01*
G75*
G02*
X164756000Y-87530000I0J-100000D01*
G01*
G37*
G36*
G01*
X165571000Y-87530000D02*
X165571000Y-87730000D01*
G75*
G02*
X165471000Y-87830000I-100000J0D01*
G01*
X165036000Y-87830000D01*
G75*
G02*
X164936000Y-87730000I0J100000D01*
G01*
X164936000Y-87530000D01*
G75*
G02*
X165036000Y-87430000I100000J0D01*
G01*
X165471000Y-87430000D01*
G75*
G02*
X165571000Y-87530000I0J-100000D01*
G01*
G37*
%TD*%
%TO.C,D1*%
G36*
G01*
X185330000Y-99795000D02*
X185330000Y-99595000D01*
G75*
G02*
X185430000Y-99495000I100000J0D01*
G01*
X185865000Y-99495000D01*
G75*
G02*
X185965000Y-99595000I0J-100000D01*
G01*
X185965000Y-99795000D01*
G75*
G02*
X185865000Y-99895000I-100000J0D01*
G01*
X185430000Y-99895000D01*
G75*
G02*
X185330000Y-99795000I0J100000D01*
G01*
G37*
G36*
G01*
X186145000Y-99795000D02*
X186145000Y-99595000D01*
G75*
G02*
X186245000Y-99495000I100000J0D01*
G01*
X186680000Y-99495000D01*
G75*
G02*
X186780000Y-99595000I0J-100000D01*
G01*
X186780000Y-99795000D01*
G75*
G02*
X186680000Y-99895000I-100000J0D01*
G01*
X186245000Y-99895000D01*
G75*
G02*
X186145000Y-99795000I0J100000D01*
G01*
G37*
%TD*%
%TO.C,D2*%
G36*
G01*
X180885000Y-99595000D02*
X180885000Y-99795000D01*
G75*
G02*
X180785000Y-99895000I-100000J0D01*
G01*
X180350000Y-99895000D01*
G75*
G02*
X180250000Y-99795000I0J100000D01*
G01*
X180250000Y-99595000D01*
G75*
G02*
X180350000Y-99495000I100000J0D01*
G01*
X180785000Y-99495000D01*
G75*
G02*
X180885000Y-99595000I0J-100000D01*
G01*
G37*
G36*
G01*
X181700000Y-99595000D02*
X181700000Y-99795000D01*
G75*
G02*
X181600000Y-99895000I-100000J0D01*
G01*
X181165000Y-99895000D01*
G75*
G02*
X181065000Y-99795000I0J100000D01*
G01*
X181065000Y-99595000D01*
G75*
G02*
X181165000Y-99495000I100000J0D01*
G01*
X181600000Y-99495000D01*
G75*
G02*
X181700000Y-99595000I0J-100000D01*
G01*
G37*
%TD*%
D10*
%TO.C,J1*%
X181966000Y-86362000D03*
X181966000Y-77722000D03*
D11*
X186136000Y-86362000D03*
X186136000Y-77722000D03*
D12*
X181386000Y-82792000D03*
X181386000Y-82292000D03*
X181386000Y-81792000D03*
X181386000Y-83792000D03*
X181386000Y-83292000D03*
X181386000Y-80792000D03*
X181386000Y-81292000D03*
X181386000Y-80292000D03*
D13*
X182446000Y-79152000D03*
X182446000Y-84932000D03*
D14*
X181386000Y-84442000D03*
X181386000Y-84442000D03*
X181386000Y-85242000D03*
X181386000Y-85242000D03*
X181386000Y-79642000D03*
X181386000Y-78842000D03*
X181386000Y-79642000D03*
X181386000Y-78842000D03*
%TD*%
D15*
%TO.C,J2*%
X172720000Y-99568000D03*
D16*
X173720000Y-99568000D03*
%TD*%
D17*
%TO.C,Q1*%
X165928000Y-82154000D03*
X165928000Y-83454000D03*
X167828000Y-82804000D03*
X165928000Y-82804000D03*
X167828000Y-83454000D03*
X167828000Y-82154000D03*
%TD*%
%TO.C,R1*%
G36*
G01*
X160374000Y-78650000D02*
X160174000Y-78650000D01*
G75*
G02*
X160074000Y-78550000I0J100000D01*
G01*
X160074000Y-78115000D01*
G75*
G02*
X160174000Y-78015000I100000J0D01*
G01*
X160374000Y-78015000D01*
G75*
G02*
X160474000Y-78115000I0J-100000D01*
G01*
X160474000Y-78550000D01*
G75*
G02*
X160374000Y-78650000I-100000J0D01*
G01*
G37*
G36*
G01*
X160374000Y-79465000D02*
X160174000Y-79465000D01*
G75*
G02*
X160074000Y-79365000I0J100000D01*
G01*
X160074000Y-78930000D01*
G75*
G02*
X160174000Y-78830000I100000J0D01*
G01*
X160374000Y-78830000D01*
G75*
G02*
X160474000Y-78930000I0J-100000D01*
G01*
X160474000Y-79365000D01*
G75*
G02*
X160374000Y-79465000I-100000J0D01*
G01*
G37*
%TD*%
%TO.C,R2*%
G36*
G01*
X161390000Y-79465000D02*
X161190000Y-79465000D01*
G75*
G02*
X161090000Y-79365000I0J100000D01*
G01*
X161090000Y-78930000D01*
G75*
G02*
X161190000Y-78830000I100000J0D01*
G01*
X161390000Y-78830000D01*
G75*
G02*
X161490000Y-78930000I0J-100000D01*
G01*
X161490000Y-79365000D01*
G75*
G02*
X161390000Y-79465000I-100000J0D01*
G01*
G37*
G36*
G01*
X161390000Y-78650000D02*
X161190000Y-78650000D01*
G75*
G02*
X161090000Y-78550000I0J100000D01*
G01*
X161090000Y-78115000D01*
G75*
G02*
X161190000Y-78015000I100000J0D01*
G01*
X161390000Y-78015000D01*
G75*
G02*
X161490000Y-78115000I0J-100000D01*
G01*
X161490000Y-78550000D01*
G75*
G02*
X161390000Y-78650000I-100000J0D01*
G01*
G37*
%TD*%
%TO.C,R3*%
G36*
G01*
X184050000Y-99150000D02*
X184250000Y-99150000D01*
G75*
G02*
X184350000Y-99250000I0J-100000D01*
G01*
X184350000Y-99685000D01*
G75*
G02*
X184250000Y-99785000I-100000J0D01*
G01*
X184050000Y-99785000D01*
G75*
G02*
X183950000Y-99685000I0J100000D01*
G01*
X183950000Y-99250000D01*
G75*
G02*
X184050000Y-99150000I100000J0D01*
G01*
G37*
G36*
G01*
X184050000Y-98335000D02*
X184250000Y-98335000D01*
G75*
G02*
X184350000Y-98435000I0J-100000D01*
G01*
X184350000Y-98870000D01*
G75*
G02*
X184250000Y-98970000I-100000J0D01*
G01*
X184050000Y-98970000D01*
G75*
G02*
X183950000Y-98870000I0J100000D01*
G01*
X183950000Y-98435000D01*
G75*
G02*
X184050000Y-98335000I100000J0D01*
G01*
G37*
%TD*%
%TO.C,R4*%
G36*
G01*
X182780000Y-98335000D02*
X182980000Y-98335000D01*
G75*
G02*
X183080000Y-98435000I0J-100000D01*
G01*
X183080000Y-98870000D01*
G75*
G02*
X182980000Y-98970000I-100000J0D01*
G01*
X182780000Y-98970000D01*
G75*
G02*
X182680000Y-98870000I0J100000D01*
G01*
X182680000Y-98435000D01*
G75*
G02*
X182780000Y-98335000I100000J0D01*
G01*
G37*
G36*
G01*
X182780000Y-99150000D02*
X182980000Y-99150000D01*
G75*
G02*
X183080000Y-99250000I0J-100000D01*
G01*
X183080000Y-99685000D01*
G75*
G02*
X182980000Y-99785000I-100000J0D01*
G01*
X182780000Y-99785000D01*
G75*
G02*
X182680000Y-99685000I0J100000D01*
G01*
X182680000Y-99250000D01*
G75*
G02*
X182780000Y-99150000I100000J0D01*
G01*
G37*
%TD*%
%TO.C,R5*%
G36*
G01*
X156120000Y-76100000D02*
X156120000Y-76300000D01*
G75*
G02*
X156020000Y-76400000I-100000J0D01*
G01*
X155585000Y-76400000D01*
G75*
G02*
X155485000Y-76300000I0J100000D01*
G01*
X155485000Y-76100000D01*
G75*
G02*
X155585000Y-76000000I100000J0D01*
G01*
X156020000Y-76000000D01*
G75*
G02*
X156120000Y-76100000I0J-100000D01*
G01*
G37*
G36*
G01*
X156935000Y-76100000D02*
X156935000Y-76300000D01*
G75*
G02*
X156835000Y-76400000I-100000J0D01*
G01*
X156400000Y-76400000D01*
G75*
G02*
X156300000Y-76300000I0J100000D01*
G01*
X156300000Y-76100000D01*
G75*
G02*
X156400000Y-76000000I100000J0D01*
G01*
X156835000Y-76000000D01*
G75*
G02*
X156935000Y-76100000I0J-100000D01*
G01*
G37*
%TD*%
%TO.C,R6*%
G36*
G01*
X159158000Y-78015000D02*
X159358000Y-78015000D01*
G75*
G02*
X159458000Y-78115000I0J-100000D01*
G01*
X159458000Y-78550000D01*
G75*
G02*
X159358000Y-78650000I-100000J0D01*
G01*
X159158000Y-78650000D01*
G75*
G02*
X159058000Y-78550000I0J100000D01*
G01*
X159058000Y-78115000D01*
G75*
G02*
X159158000Y-78015000I100000J0D01*
G01*
G37*
G36*
G01*
X159158000Y-78830000D02*
X159358000Y-78830000D01*
G75*
G02*
X159458000Y-78930000I0J-100000D01*
G01*
X159458000Y-79365000D01*
G75*
G02*
X159358000Y-79465000I-100000J0D01*
G01*
X159158000Y-79465000D01*
G75*
G02*
X159058000Y-79365000I0J100000D01*
G01*
X159058000Y-78930000D01*
G75*
G02*
X159158000Y-78830000I100000J0D01*
G01*
G37*
%TD*%
%TO.C,R7*%
G36*
G01*
X178662000Y-84238000D02*
X178462000Y-84238000D01*
G75*
G02*
X178362000Y-84138000I0J100000D01*
G01*
X178362000Y-83703000D01*
G75*
G02*
X178462000Y-83603000I100000J0D01*
G01*
X178662000Y-83603000D01*
G75*
G02*
X178762000Y-83703000I0J-100000D01*
G01*
X178762000Y-84138000D01*
G75*
G02*
X178662000Y-84238000I-100000J0D01*
G01*
G37*
G36*
G01*
X178662000Y-85053000D02*
X178462000Y-85053000D01*
G75*
G02*
X178362000Y-84953000I0J100000D01*
G01*
X178362000Y-84518000D01*
G75*
G02*
X178462000Y-84418000I100000J0D01*
G01*
X178662000Y-84418000D01*
G75*
G02*
X178762000Y-84518000I0J-100000D01*
G01*
X178762000Y-84953000D01*
G75*
G02*
X178662000Y-85053000I-100000J0D01*
G01*
G37*
%TD*%
%TO.C,R8*%
G36*
G01*
X178462000Y-78777000D02*
X178662000Y-78777000D01*
G75*
G02*
X178762000Y-78877000I0J-100000D01*
G01*
X178762000Y-79312000D01*
G75*
G02*
X178662000Y-79412000I-100000J0D01*
G01*
X178462000Y-79412000D01*
G75*
G02*
X178362000Y-79312000I0J100000D01*
G01*
X178362000Y-78877000D01*
G75*
G02*
X178462000Y-78777000I100000J0D01*
G01*
G37*
G36*
G01*
X178462000Y-79592000D02*
X178662000Y-79592000D01*
G75*
G02*
X178762000Y-79692000I0J-100000D01*
G01*
X178762000Y-80127000D01*
G75*
G02*
X178662000Y-80227000I-100000J0D01*
G01*
X178462000Y-80227000D01*
G75*
G02*
X178362000Y-80127000I0J100000D01*
G01*
X178362000Y-79692000D01*
G75*
G02*
X178462000Y-79592000I100000J0D01*
G01*
G37*
%TD*%
%TO.C,R9*%
G36*
G01*
X182790000Y-89635000D02*
X182790000Y-89435000D01*
G75*
G02*
X182890000Y-89335000I100000J0D01*
G01*
X183325000Y-89335000D01*
G75*
G02*
X183425000Y-89435000I0J-100000D01*
G01*
X183425000Y-89635000D01*
G75*
G02*
X183325000Y-89735000I-100000J0D01*
G01*
X182890000Y-89735000D01*
G75*
G02*
X182790000Y-89635000I0J100000D01*
G01*
G37*
G36*
G01*
X183605000Y-89635000D02*
X183605000Y-89435000D01*
G75*
G02*
X183705000Y-89335000I100000J0D01*
G01*
X184140000Y-89335000D01*
G75*
G02*
X184240000Y-89435000I0J-100000D01*
G01*
X184240000Y-89635000D01*
G75*
G02*
X184140000Y-89735000I-100000J0D01*
G01*
X183705000Y-89735000D01*
G75*
G02*
X183605000Y-89635000I0J100000D01*
G01*
G37*
%TD*%
%TO.C,R10*%
G36*
G01*
X156300000Y-73760000D02*
X156300000Y-73560000D01*
G75*
G02*
X156400000Y-73460000I100000J0D01*
G01*
X156835000Y-73460000D01*
G75*
G02*
X156935000Y-73560000I0J-100000D01*
G01*
X156935000Y-73760000D01*
G75*
G02*
X156835000Y-73860000I-100000J0D01*
G01*
X156400000Y-73860000D01*
G75*
G02*
X156300000Y-73760000I0J100000D01*
G01*
G37*
G36*
G01*
X155485000Y-73760000D02*
X155485000Y-73560000D01*
G75*
G02*
X155585000Y-73460000I100000J0D01*
G01*
X156020000Y-73460000D01*
G75*
G02*
X156120000Y-73560000I0J-100000D01*
G01*
X156120000Y-73760000D01*
G75*
G02*
X156020000Y-73860000I-100000J0D01*
G01*
X155585000Y-73860000D01*
G75*
G02*
X155485000Y-73760000I0J100000D01*
G01*
G37*
%TD*%
%TO.C,R11*%
G36*
G01*
X155485000Y-72490000D02*
X155485000Y-72290000D01*
G75*
G02*
X155585000Y-72190000I100000J0D01*
G01*
X156020000Y-72190000D01*
G75*
G02*
X156120000Y-72290000I0J-100000D01*
G01*
X156120000Y-72490000D01*
G75*
G02*
X156020000Y-72590000I-100000J0D01*
G01*
X155585000Y-72590000D01*
G75*
G02*
X155485000Y-72490000I0J100000D01*
G01*
G37*
G36*
G01*
X156300000Y-72490000D02*
X156300000Y-72290000D01*
G75*
G02*
X156400000Y-72190000I100000J0D01*
G01*
X156835000Y-72190000D01*
G75*
G02*
X156935000Y-72290000I0J-100000D01*
G01*
X156935000Y-72490000D01*
G75*
G02*
X156835000Y-72590000I-100000J0D01*
G01*
X156400000Y-72590000D01*
G75*
G02*
X156300000Y-72490000I0J100000D01*
G01*
G37*
%TD*%
%TO.C,R12*%
G36*
G01*
X172620000Y-90895000D02*
X172820000Y-90895000D01*
G75*
G02*
X172920000Y-90995000I0J-100000D01*
G01*
X172920000Y-91430000D01*
G75*
G02*
X172820000Y-91530000I-100000J0D01*
G01*
X172620000Y-91530000D01*
G75*
G02*
X172520000Y-91430000I0J100000D01*
G01*
X172520000Y-90995000D01*
G75*
G02*
X172620000Y-90895000I100000J0D01*
G01*
G37*
G36*
G01*
X172620000Y-90080000D02*
X172820000Y-90080000D01*
G75*
G02*
X172920000Y-90180000I0J-100000D01*
G01*
X172920000Y-90615000D01*
G75*
G02*
X172820000Y-90715000I-100000J0D01*
G01*
X172620000Y-90715000D01*
G75*
G02*
X172520000Y-90615000I0J100000D01*
G01*
X172520000Y-90180000D01*
G75*
G02*
X172620000Y-90080000I100000J0D01*
G01*
G37*
%TD*%
%TO.C,R13*%
G36*
G01*
X177392000Y-99478000D02*
X177192000Y-99478000D01*
G75*
G02*
X177092000Y-99378000I0J100000D01*
G01*
X177092000Y-98943000D01*
G75*
G02*
X177192000Y-98843000I100000J0D01*
G01*
X177392000Y-98843000D01*
G75*
G02*
X177492000Y-98943000I0J-100000D01*
G01*
X177492000Y-99378000D01*
G75*
G02*
X177392000Y-99478000I-100000J0D01*
G01*
G37*
G36*
G01*
X177392000Y-100293000D02*
X177192000Y-100293000D01*
G75*
G02*
X177092000Y-100193000I0J100000D01*
G01*
X177092000Y-99758000D01*
G75*
G02*
X177192000Y-99658000I100000J0D01*
G01*
X177392000Y-99658000D01*
G75*
G02*
X177492000Y-99758000I0J-100000D01*
G01*
X177492000Y-100193000D01*
G75*
G02*
X177392000Y-100293000I-100000J0D01*
G01*
G37*
%TD*%
%TO.C,R14*%
G36*
G01*
X143981000Y-100484000D02*
X143981000Y-100684000D01*
G75*
G02*
X143881000Y-100784000I-100000J0D01*
G01*
X143446000Y-100784000D01*
G75*
G02*
X143346000Y-100684000I0J100000D01*
G01*
X143346000Y-100484000D01*
G75*
G02*
X143446000Y-100384000I100000J0D01*
G01*
X143881000Y-100384000D01*
G75*
G02*
X143981000Y-100484000I0J-100000D01*
G01*
G37*
G36*
G01*
X143166000Y-100484000D02*
X143166000Y-100684000D01*
G75*
G02*
X143066000Y-100784000I-100000J0D01*
G01*
X142631000Y-100784000D01*
G75*
G02*
X142531000Y-100684000I0J100000D01*
G01*
X142531000Y-100484000D01*
G75*
G02*
X142631000Y-100384000I100000J0D01*
G01*
X143066000Y-100384000D01*
G75*
G02*
X143166000Y-100484000I0J-100000D01*
G01*
G37*
%TD*%
%TO.C,R15*%
G36*
G01*
X147357000Y-100684000D02*
X147357000Y-100484000D01*
G75*
G02*
X147457000Y-100384000I100000J0D01*
G01*
X147892000Y-100384000D01*
G75*
G02*
X147992000Y-100484000I0J-100000D01*
G01*
X147992000Y-100684000D01*
G75*
G02*
X147892000Y-100784000I-100000J0D01*
G01*
X147457000Y-100784000D01*
G75*
G02*
X147357000Y-100684000I0J100000D01*
G01*
G37*
G36*
G01*
X148172000Y-100684000D02*
X148172000Y-100484000D01*
G75*
G02*
X148272000Y-100384000I100000J0D01*
G01*
X148707000Y-100384000D01*
G75*
G02*
X148807000Y-100484000I0J-100000D01*
G01*
X148807000Y-100684000D01*
G75*
G02*
X148707000Y-100784000I-100000J0D01*
G01*
X148272000Y-100784000D01*
G75*
G02*
X148172000Y-100684000I0J100000D01*
G01*
G37*
%TD*%
%TO.C,R16*%
G36*
G01*
X164756000Y-93880000D02*
X164756000Y-94080000D01*
G75*
G02*
X164656000Y-94180000I-100000J0D01*
G01*
X164221000Y-94180000D01*
G75*
G02*
X164121000Y-94080000I0J100000D01*
G01*
X164121000Y-93880000D01*
G75*
G02*
X164221000Y-93780000I100000J0D01*
G01*
X164656000Y-93780000D01*
G75*
G02*
X164756000Y-93880000I0J-100000D01*
G01*
G37*
G36*
G01*
X165571000Y-93880000D02*
X165571000Y-94080000D01*
G75*
G02*
X165471000Y-94180000I-100000J0D01*
G01*
X165036000Y-94180000D01*
G75*
G02*
X164936000Y-94080000I0J100000D01*
G01*
X164936000Y-93880000D01*
G75*
G02*
X165036000Y-93780000I100000J0D01*
G01*
X165471000Y-93780000D01*
G75*
G02*
X165571000Y-93880000I0J-100000D01*
G01*
G37*
%TD*%
%TO.C,R17*%
G36*
G01*
X154977000Y-79348000D02*
X154977000Y-79148000D01*
G75*
G02*
X155077000Y-79048000I100000J0D01*
G01*
X155512000Y-79048000D01*
G75*
G02*
X155612000Y-79148000I0J-100000D01*
G01*
X155612000Y-79348000D01*
G75*
G02*
X155512000Y-79448000I-100000J0D01*
G01*
X155077000Y-79448000D01*
G75*
G02*
X154977000Y-79348000I0J100000D01*
G01*
G37*
G36*
G01*
X155792000Y-79348000D02*
X155792000Y-79148000D01*
G75*
G02*
X155892000Y-79048000I100000J0D01*
G01*
X156327000Y-79048000D01*
G75*
G02*
X156427000Y-79148000I0J-100000D01*
G01*
X156427000Y-79348000D01*
G75*
G02*
X156327000Y-79448000I-100000J0D01*
G01*
X155892000Y-79448000D01*
G75*
G02*
X155792000Y-79348000I0J100000D01*
G01*
G37*
%TD*%
%TO.C,R18*%
G36*
G01*
X141996500Y-79148000D02*
X141996500Y-79348000D01*
G75*
G02*
X141896500Y-79448000I-100000J0D01*
G01*
X141461500Y-79448000D01*
G75*
G02*
X141361500Y-79348000I0J100000D01*
G01*
X141361500Y-79148000D01*
G75*
G02*
X141461500Y-79048000I100000J0D01*
G01*
X141896500Y-79048000D01*
G75*
G02*
X141996500Y-79148000I0J-100000D01*
G01*
G37*
G36*
G01*
X142811500Y-79148000D02*
X142811500Y-79348000D01*
G75*
G02*
X142711500Y-79448000I-100000J0D01*
G01*
X142276500Y-79448000D01*
G75*
G02*
X142176500Y-79348000I0J100000D01*
G01*
X142176500Y-79148000D01*
G75*
G02*
X142276500Y-79048000I100000J0D01*
G01*
X142711500Y-79048000D01*
G75*
G02*
X142811500Y-79148000I0J-100000D01*
G01*
G37*
%TD*%
%TO.C,R19*%
G36*
G01*
X151220000Y-79348000D02*
X151220000Y-79148000D01*
G75*
G02*
X151320000Y-79048000I100000J0D01*
G01*
X151755000Y-79048000D01*
G75*
G02*
X151855000Y-79148000I0J-100000D01*
G01*
X151855000Y-79348000D01*
G75*
G02*
X151755000Y-79448000I-100000J0D01*
G01*
X151320000Y-79448000D01*
G75*
G02*
X151220000Y-79348000I0J100000D01*
G01*
G37*
G36*
G01*
X150405000Y-79348000D02*
X150405000Y-79148000D01*
G75*
G02*
X150505000Y-79048000I100000J0D01*
G01*
X150940000Y-79048000D01*
G75*
G02*
X151040000Y-79148000I0J-100000D01*
G01*
X151040000Y-79348000D01*
G75*
G02*
X150940000Y-79448000I-100000J0D01*
G01*
X150505000Y-79448000D01*
G75*
G02*
X150405000Y-79348000I0J100000D01*
G01*
G37*
%TD*%
%TO.C,R20*%
G36*
G01*
X147283000Y-79148000D02*
X147283000Y-79348000D01*
G75*
G02*
X147183000Y-79448000I-100000J0D01*
G01*
X146748000Y-79448000D01*
G75*
G02*
X146648000Y-79348000I0J100000D01*
G01*
X146648000Y-79148000D01*
G75*
G02*
X146748000Y-79048000I100000J0D01*
G01*
X147183000Y-79048000D01*
G75*
G02*
X147283000Y-79148000I0J-100000D01*
G01*
G37*
G36*
G01*
X146468000Y-79148000D02*
X146468000Y-79348000D01*
G75*
G02*
X146368000Y-79448000I-100000J0D01*
G01*
X145933000Y-79448000D01*
G75*
G02*
X145833000Y-79348000I0J100000D01*
G01*
X145833000Y-79148000D01*
G75*
G02*
X145933000Y-79048000I100000J0D01*
G01*
X146368000Y-79048000D01*
G75*
G02*
X146468000Y-79148000I0J-100000D01*
G01*
G37*
%TD*%
D18*
%TO.C,SW1*%
X140551000Y-75402000D03*
X140551000Y-70902000D03*
X148501000Y-70902000D03*
X148501000Y-75402000D03*
%TD*%
D19*
%TO.C,SW2*%
X162346000Y-96818000D03*
X164846000Y-96818000D03*
X167346000Y-96818000D03*
D20*
X161446000Y-99568000D03*
X168246000Y-99568000D03*
%TD*%
D21*
%TO.C,U2*%
X161024000Y-76555500D03*
D22*
X158611500Y-71918000D03*
D21*
X161024000Y-71780500D03*
D22*
X161936500Y-71918000D03*
D21*
X160524000Y-71780500D03*
X160024000Y-71780500D03*
X159524000Y-71780500D03*
D22*
X161936500Y-72418000D03*
X161936500Y-72918000D03*
X161936500Y-73418000D03*
X161936500Y-73918000D03*
X161936500Y-74418000D03*
X161936500Y-74918000D03*
X161936500Y-75418000D03*
X161936500Y-75918000D03*
X161936500Y-76418000D03*
X158611500Y-72418000D03*
X158611500Y-72918000D03*
X158611500Y-73418000D03*
X158611500Y-73918000D03*
X158611500Y-74418000D03*
X158611500Y-74918000D03*
X158611500Y-75418000D03*
X158611500Y-75918000D03*
X158611500Y-76418000D03*
D21*
X160524000Y-76555500D03*
X160024000Y-76555500D03*
X159524000Y-76555500D03*
%TD*%
%TO.C,U3*%
G36*
G01*
X177186000Y-86337000D02*
X177186000Y-86637000D01*
G75*
G02*
X177036000Y-86787000I-150000J0D01*
G01*
X175386000Y-86787000D01*
G75*
G02*
X175236000Y-86637000I0J150000D01*
G01*
X175236000Y-86337000D01*
G75*
G02*
X175386000Y-86187000I150000J0D01*
G01*
X177036000Y-86187000D01*
G75*
G02*
X177186000Y-86337000I0J-150000D01*
G01*
G37*
G36*
G01*
X177186000Y-85067000D02*
X177186000Y-85367000D01*
G75*
G02*
X177036000Y-85517000I-150000J0D01*
G01*
X175386000Y-85517000D01*
G75*
G02*
X175236000Y-85367000I0J150000D01*
G01*
X175236000Y-85067000D01*
G75*
G02*
X175386000Y-84917000I150000J0D01*
G01*
X177036000Y-84917000D01*
G75*
G02*
X177186000Y-85067000I0J-150000D01*
G01*
G37*
G36*
G01*
X177186000Y-83797000D02*
X177186000Y-84097000D01*
G75*
G02*
X177036000Y-84247000I-150000J0D01*
G01*
X175386000Y-84247000D01*
G75*
G02*
X175236000Y-84097000I0J150000D01*
G01*
X175236000Y-83797000D01*
G75*
G02*
X175386000Y-83647000I150000J0D01*
G01*
X177036000Y-83647000D01*
G75*
G02*
X177186000Y-83797000I0J-150000D01*
G01*
G37*
G36*
G01*
X177186000Y-82527000D02*
X177186000Y-82827000D01*
G75*
G02*
X177036000Y-82977000I-150000J0D01*
G01*
X175386000Y-82977000D01*
G75*
G02*
X175236000Y-82827000I0J150000D01*
G01*
X175236000Y-82527000D01*
G75*
G02*
X175386000Y-82377000I150000J0D01*
G01*
X177036000Y-82377000D01*
G75*
G02*
X177186000Y-82527000I0J-150000D01*
G01*
G37*
G36*
G01*
X177186000Y-81257000D02*
X177186000Y-81557000D01*
G75*
G02*
X177036000Y-81707000I-150000J0D01*
G01*
X175386000Y-81707000D01*
G75*
G02*
X175236000Y-81557000I0J150000D01*
G01*
X175236000Y-81257000D01*
G75*
G02*
X175386000Y-81107000I150000J0D01*
G01*
X177036000Y-81107000D01*
G75*
G02*
X177186000Y-81257000I0J-150000D01*
G01*
G37*
G36*
G01*
X177186000Y-79987000D02*
X177186000Y-80287000D01*
G75*
G02*
X177036000Y-80437000I-150000J0D01*
G01*
X175386000Y-80437000D01*
G75*
G02*
X175236000Y-80287000I0J150000D01*
G01*
X175236000Y-79987000D01*
G75*
G02*
X175386000Y-79837000I150000J0D01*
G01*
X177036000Y-79837000D01*
G75*
G02*
X177186000Y-79987000I0J-150000D01*
G01*
G37*
G36*
G01*
X177186000Y-78717000D02*
X177186000Y-79017000D01*
G75*
G02*
X177036000Y-79167000I-150000J0D01*
G01*
X175386000Y-79167000D01*
G75*
G02*
X175236000Y-79017000I0J150000D01*
G01*
X175236000Y-78717000D01*
G75*
G02*
X175386000Y-78567000I150000J0D01*
G01*
X177036000Y-78567000D01*
G75*
G02*
X177186000Y-78717000I0J-150000D01*
G01*
G37*
G36*
G01*
X177186000Y-77447000D02*
X177186000Y-77747000D01*
G75*
G02*
X177036000Y-77897000I-150000J0D01*
G01*
X175386000Y-77897000D01*
G75*
G02*
X175236000Y-77747000I0J150000D01*
G01*
X175236000Y-77447000D01*
G75*
G02*
X175386000Y-77297000I150000J0D01*
G01*
X177036000Y-77297000D01*
G75*
G02*
X177186000Y-77447000I0J-150000D01*
G01*
G37*
G36*
G01*
X172236000Y-77447000D02*
X172236000Y-77747000D01*
G75*
G02*
X172086000Y-77897000I-150000J0D01*
G01*
X170436000Y-77897000D01*
G75*
G02*
X170286000Y-77747000I0J150000D01*
G01*
X170286000Y-77447000D01*
G75*
G02*
X170436000Y-77297000I150000J0D01*
G01*
X172086000Y-77297000D01*
G75*
G02*
X172236000Y-77447000I0J-150000D01*
G01*
G37*
G36*
G01*
X172236000Y-78717000D02*
X172236000Y-79017000D01*
G75*
G02*
X172086000Y-79167000I-150000J0D01*
G01*
X170436000Y-79167000D01*
G75*
G02*
X170286000Y-79017000I0J150000D01*
G01*
X170286000Y-78717000D01*
G75*
G02*
X170436000Y-78567000I150000J0D01*
G01*
X172086000Y-78567000D01*
G75*
G02*
X172236000Y-78717000I0J-150000D01*
G01*
G37*
G36*
G01*
X172236000Y-79987000D02*
X172236000Y-80287000D01*
G75*
G02*
X172086000Y-80437000I-150000J0D01*
G01*
X170436000Y-80437000D01*
G75*
G02*
X170286000Y-80287000I0J150000D01*
G01*
X170286000Y-79987000D01*
G75*
G02*
X170436000Y-79837000I150000J0D01*
G01*
X172086000Y-79837000D01*
G75*
G02*
X172236000Y-79987000I0J-150000D01*
G01*
G37*
G36*
G01*
X172236000Y-81257000D02*
X172236000Y-81557000D01*
G75*
G02*
X172086000Y-81707000I-150000J0D01*
G01*
X170436000Y-81707000D01*
G75*
G02*
X170286000Y-81557000I0J150000D01*
G01*
X170286000Y-81257000D01*
G75*
G02*
X170436000Y-81107000I150000J0D01*
G01*
X172086000Y-81107000D01*
G75*
G02*
X172236000Y-81257000I0J-150000D01*
G01*
G37*
G36*
G01*
X172236000Y-82527000D02*
X172236000Y-82827000D01*
G75*
G02*
X172086000Y-82977000I-150000J0D01*
G01*
X170436000Y-82977000D01*
G75*
G02*
X170286000Y-82827000I0J150000D01*
G01*
X170286000Y-82527000D01*
G75*
G02*
X170436000Y-82377000I150000J0D01*
G01*
X172086000Y-82377000D01*
G75*
G02*
X172236000Y-82527000I0J-150000D01*
G01*
G37*
G36*
G01*
X172236000Y-83797000D02*
X172236000Y-84097000D01*
G75*
G02*
X172086000Y-84247000I-150000J0D01*
G01*
X170436000Y-84247000D01*
G75*
G02*
X170286000Y-84097000I0J150000D01*
G01*
X170286000Y-83797000D01*
G75*
G02*
X170436000Y-83647000I150000J0D01*
G01*
X172086000Y-83647000D01*
G75*
G02*
X172236000Y-83797000I0J-150000D01*
G01*
G37*
G36*
G01*
X172236000Y-85067000D02*
X172236000Y-85367000D01*
G75*
G02*
X172086000Y-85517000I-150000J0D01*
G01*
X170436000Y-85517000D01*
G75*
G02*
X170286000Y-85367000I0J150000D01*
G01*
X170286000Y-85067000D01*
G75*
G02*
X170436000Y-84917000I150000J0D01*
G01*
X172086000Y-84917000D01*
G75*
G02*
X172236000Y-85067000I0J-150000D01*
G01*
G37*
G36*
G01*
X172236000Y-86337000D02*
X172236000Y-86637000D01*
G75*
G02*
X172086000Y-86787000I-150000J0D01*
G01*
X170436000Y-86787000D01*
G75*
G02*
X170286000Y-86637000I0J150000D01*
G01*
X170286000Y-86337000D01*
G75*
G02*
X170436000Y-86187000I150000J0D01*
G01*
X172086000Y-86187000D01*
G75*
G02*
X172236000Y-86337000I0J-150000D01*
G01*
G37*
%TD*%
D23*
%TO.C,U4*%
X173670000Y-93265000D03*
X172720000Y-93265000D03*
X171770000Y-93265000D03*
X171770000Y-95965000D03*
X173670000Y-95965000D03*
X172720000Y-95965000D03*
%TD*%
%TO.C,U5*%
G36*
G01*
X176290000Y-97580000D02*
X176090000Y-97580000D01*
G75*
G02*
X175990000Y-97480000I0J100000D01*
G01*
X175990000Y-96205000D01*
G75*
G02*
X176090000Y-96105000I100000J0D01*
G01*
X176290000Y-96105000D01*
G75*
G02*
X176390000Y-96205000I0J-100000D01*
G01*
X176390000Y-97480000D01*
G75*
G02*
X176290000Y-97580000I-100000J0D01*
G01*
G37*
G36*
G01*
X176940000Y-97580000D02*
X176740000Y-97580000D01*
G75*
G02*
X176640000Y-97480000I0J100000D01*
G01*
X176640000Y-96205000D01*
G75*
G02*
X176740000Y-96105000I100000J0D01*
G01*
X176940000Y-96105000D01*
G75*
G02*
X177040000Y-96205000I0J-100000D01*
G01*
X177040000Y-97480000D01*
G75*
G02*
X176940000Y-97580000I-100000J0D01*
G01*
G37*
G36*
G01*
X177590000Y-97580000D02*
X177390000Y-97580000D01*
G75*
G02*
X177290000Y-97480000I0J100000D01*
G01*
X177290000Y-96205000D01*
G75*
G02*
X177390000Y-96105000I100000J0D01*
G01*
X177590000Y-96105000D01*
G75*
G02*
X177690000Y-96205000I0J-100000D01*
G01*
X177690000Y-97480000D01*
G75*
G02*
X177590000Y-97580000I-100000J0D01*
G01*
G37*
G36*
G01*
X178240000Y-97580000D02*
X178040000Y-97580000D01*
G75*
G02*
X177940000Y-97480000I0J100000D01*
G01*
X177940000Y-96205000D01*
G75*
G02*
X178040000Y-96105000I100000J0D01*
G01*
X178240000Y-96105000D01*
G75*
G02*
X178340000Y-96205000I0J-100000D01*
G01*
X178340000Y-97480000D01*
G75*
G02*
X178240000Y-97580000I-100000J0D01*
G01*
G37*
G36*
G01*
X178240000Y-91855000D02*
X178040000Y-91855000D01*
G75*
G02*
X177940000Y-91755000I0J100000D01*
G01*
X177940000Y-90480000D01*
G75*
G02*
X178040000Y-90380000I100000J0D01*
G01*
X178240000Y-90380000D01*
G75*
G02*
X178340000Y-90480000I0J-100000D01*
G01*
X178340000Y-91755000D01*
G75*
G02*
X178240000Y-91855000I-100000J0D01*
G01*
G37*
G36*
G01*
X177590000Y-91855000D02*
X177390000Y-91855000D01*
G75*
G02*
X177290000Y-91755000I0J100000D01*
G01*
X177290000Y-90480000D01*
G75*
G02*
X177390000Y-90380000I100000J0D01*
G01*
X177590000Y-90380000D01*
G75*
G02*
X177690000Y-90480000I0J-100000D01*
G01*
X177690000Y-91755000D01*
G75*
G02*
X177590000Y-91855000I-100000J0D01*
G01*
G37*
G36*
G01*
X176940000Y-91855000D02*
X176740000Y-91855000D01*
G75*
G02*
X176640000Y-91755000I0J100000D01*
G01*
X176640000Y-90480000D01*
G75*
G02*
X176740000Y-90380000I100000J0D01*
G01*
X176940000Y-90380000D01*
G75*
G02*
X177040000Y-90480000I0J-100000D01*
G01*
X177040000Y-91755000D01*
G75*
G02*
X176940000Y-91855000I-100000J0D01*
G01*
G37*
G36*
G01*
X176290000Y-91855000D02*
X176090000Y-91855000D01*
G75*
G02*
X175990000Y-91755000I0J100000D01*
G01*
X175990000Y-90480000D01*
G75*
G02*
X176090000Y-90380000I100000J0D01*
G01*
X176290000Y-90380000D01*
G75*
G02*
X176390000Y-90480000I0J-100000D01*
G01*
X176390000Y-91755000D01*
G75*
G02*
X176290000Y-91855000I-100000J0D01*
G01*
G37*
%TD*%
D24*
%TO.C,U6*%
X142550000Y-98024000D03*
X144550000Y-98024000D03*
X146550000Y-98024000D03*
X148550000Y-98024000D03*
X150550000Y-98024000D03*
X152550000Y-98024000D03*
X154550000Y-98024000D03*
X156550000Y-98024000D03*
D25*
X158050000Y-95424000D03*
X158050000Y-93424000D03*
X158050000Y-91424000D03*
X158050000Y-89424000D03*
X158050000Y-87424000D03*
X158050000Y-85424000D03*
D24*
X156550000Y-82824000D03*
X154550000Y-82824000D03*
X152550000Y-82824000D03*
X150550000Y-82824000D03*
X148550000Y-82824000D03*
X146550000Y-82824000D03*
X144550000Y-82824000D03*
X142550000Y-82824000D03*
%TD*%
D26*
%TO.C,U7*%
X163446000Y-89424000D03*
X163446000Y-89924000D03*
X163446000Y-90424000D03*
X163446000Y-90924000D03*
X163446000Y-91424000D03*
X166246000Y-91424000D03*
X166246000Y-90924000D03*
X166246000Y-90424000D03*
X166246000Y-89924000D03*
X166246000Y-89424000D03*
D27*
G36*
X164721000Y-89224000D02*
G01*
X164971000Y-89224000D01*
X164971000Y-88724000D01*
X165221000Y-88724000D01*
X165221000Y-89224000D01*
X165671000Y-89224000D01*
X165671000Y-91624000D01*
X165221000Y-91624000D01*
X165221000Y-92124000D01*
X164971000Y-92124000D01*
X164971000Y-91624000D01*
X164721000Y-91624000D01*
X164721000Y-92124000D01*
X164471000Y-92124000D01*
X164471000Y-91624000D01*
X164021000Y-91624000D01*
X164021000Y-89224000D01*
X164471000Y-89224000D01*
X164471000Y-88724000D01*
X164721000Y-88724000D01*
X164721000Y-89224000D01*
G37*
%TD*%
D28*
%TO.C,Y1*%
X165608000Y-71509500D03*
X165608000Y-77334500D03*
%TD*%
D29*
%TO.C,U1*%
X185420000Y-91280000D03*
X184150000Y-91280000D03*
X182880000Y-91280000D03*
X181610000Y-91280000D03*
X181610000Y-96680000D03*
X182880000Y-96680000D03*
X184150000Y-96680000D03*
X185420000Y-96680000D03*
D30*
X183515000Y-93980000D03*
%TD*%
M02*
