%TF.GenerationSoftware,KiCad,Pcbnew,(5.1.10)-1*%
%TF.CreationDate,2021-12-11T23:13:08+01:00*%
%TF.ProjectId,tracker,74726163-6b65-4722-9e6b-696361645f70,rev?*%
%TF.SameCoordinates,Original*%
%TF.FileFunction,Soldermask,Top*%
%TF.FilePolarity,Negative*%
%FSLAX46Y46*%
G04 Gerber Fmt 4.6, Leading zero omitted, Abs format (unit mm)*
G04 Created by KiCad (PCBNEW (5.1.10)-1) date 2021-12-11 23:13:08*
%MOMM*%
%LPD*%
G01*
G04 APERTURE LIST*
%ADD10O,2.000000X0.900000*%
%ADD11O,1.700000X0.900000*%
%ADD12R,1.160000X0.300000*%
%ADD13C,0.600000*%
%ADD14R,1.160000X0.600000*%
%ADD15R,0.850000X0.850000*%
%ADD16O,0.850000X0.850000*%
%ADD17R,0.650000X0.400000*%
%ADD18R,1.550000X1.300000*%
%ADD19R,1.250000X2.500000*%
%ADD20C,0.900000*%
%ADD21R,0.254000X0.675000*%
%ADD22R,0.675000X0.254000*%
%ADD23R,0.650000X1.560000*%
%ADD24R,1.000000X2.500000*%
%ADD25R,1.800000X1.000000*%
%ADD26R,0.600000X0.240000*%
%ADD27C,0.100000*%
%ADD28R,2.500000X3.325000*%
%ADD29R,0.650000X1.500000*%
%ADD30R,3.600000X2.700000*%
G04 APERTURE END LIST*
%TO.C,R20*%
G36*
G01*
X146064000Y-79088000D02*
X146064000Y-79408000D01*
G75*
G02*
X145904000Y-79568000I-160000J0D01*
G01*
X145509000Y-79568000D01*
G75*
G02*
X145349000Y-79408000I0J160000D01*
G01*
X145349000Y-79088000D01*
G75*
G02*
X145509000Y-78928000I160000J0D01*
G01*
X145904000Y-78928000D01*
G75*
G02*
X146064000Y-79088000I0J-160000D01*
G01*
G37*
G36*
G01*
X147259000Y-79088000D02*
X147259000Y-79408000D01*
G75*
G02*
X147099000Y-79568000I-160000J0D01*
G01*
X146704000Y-79568000D01*
G75*
G02*
X146544000Y-79408000I0J160000D01*
G01*
X146544000Y-79088000D01*
G75*
G02*
X146704000Y-78928000I160000J0D01*
G01*
X147099000Y-78928000D01*
G75*
G02*
X147259000Y-79088000I0J-160000D01*
G01*
G37*
%TD*%
%TO.C,R19*%
G36*
G01*
X151624000Y-79408000D02*
X151624000Y-79088000D01*
G75*
G02*
X151784000Y-78928000I160000J0D01*
G01*
X152179000Y-78928000D01*
G75*
G02*
X152339000Y-79088000I0J-160000D01*
G01*
X152339000Y-79408000D01*
G75*
G02*
X152179000Y-79568000I-160000J0D01*
G01*
X151784000Y-79568000D01*
G75*
G02*
X151624000Y-79408000I0J160000D01*
G01*
G37*
G36*
G01*
X150429000Y-79408000D02*
X150429000Y-79088000D01*
G75*
G02*
X150589000Y-78928000I160000J0D01*
G01*
X150984000Y-78928000D01*
G75*
G02*
X151144000Y-79088000I0J-160000D01*
G01*
X151144000Y-79408000D01*
G75*
G02*
X150984000Y-79568000I-160000J0D01*
G01*
X150589000Y-79568000D01*
G75*
G02*
X150429000Y-79408000I0J160000D01*
G01*
G37*
%TD*%
%TO.C,R18*%
G36*
G01*
X141846500Y-79088000D02*
X141846500Y-79408000D01*
G75*
G02*
X141686500Y-79568000I-160000J0D01*
G01*
X141291500Y-79568000D01*
G75*
G02*
X141131500Y-79408000I0J160000D01*
G01*
X141131500Y-79088000D01*
G75*
G02*
X141291500Y-78928000I160000J0D01*
G01*
X141686500Y-78928000D01*
G75*
G02*
X141846500Y-79088000I0J-160000D01*
G01*
G37*
G36*
G01*
X143041500Y-79088000D02*
X143041500Y-79408000D01*
G75*
G02*
X142881500Y-79568000I-160000J0D01*
G01*
X142486500Y-79568000D01*
G75*
G02*
X142326500Y-79408000I0J160000D01*
G01*
X142326500Y-79088000D01*
G75*
G02*
X142486500Y-78928000I160000J0D01*
G01*
X142881500Y-78928000D01*
G75*
G02*
X143041500Y-79088000I0J-160000D01*
G01*
G37*
%TD*%
%TO.C,R17*%
G36*
G01*
X155942000Y-79408000D02*
X155942000Y-79088000D01*
G75*
G02*
X156102000Y-78928000I160000J0D01*
G01*
X156497000Y-78928000D01*
G75*
G02*
X156657000Y-79088000I0J-160000D01*
G01*
X156657000Y-79408000D01*
G75*
G02*
X156497000Y-79568000I-160000J0D01*
G01*
X156102000Y-79568000D01*
G75*
G02*
X155942000Y-79408000I0J160000D01*
G01*
G37*
G36*
G01*
X154747000Y-79408000D02*
X154747000Y-79088000D01*
G75*
G02*
X154907000Y-78928000I160000J0D01*
G01*
X155302000Y-78928000D01*
G75*
G02*
X155462000Y-79088000I0J-160000D01*
G01*
X155462000Y-79408000D01*
G75*
G02*
X155302000Y-79568000I-160000J0D01*
G01*
X154907000Y-79568000D01*
G75*
G02*
X154747000Y-79408000I0J160000D01*
G01*
G37*
%TD*%
%TO.C,R16*%
G36*
G01*
X164606000Y-93820000D02*
X164606000Y-94140000D01*
G75*
G02*
X164446000Y-94300000I-160000J0D01*
G01*
X164051000Y-94300000D01*
G75*
G02*
X163891000Y-94140000I0J160000D01*
G01*
X163891000Y-93820000D01*
G75*
G02*
X164051000Y-93660000I160000J0D01*
G01*
X164446000Y-93660000D01*
G75*
G02*
X164606000Y-93820000I0J-160000D01*
G01*
G37*
G36*
G01*
X165801000Y-93820000D02*
X165801000Y-94140000D01*
G75*
G02*
X165641000Y-94300000I-160000J0D01*
G01*
X165246000Y-94300000D01*
G75*
G02*
X165086000Y-94140000I0J160000D01*
G01*
X165086000Y-93820000D01*
G75*
G02*
X165246000Y-93660000I160000J0D01*
G01*
X165641000Y-93660000D01*
G75*
G02*
X165801000Y-93820000I0J-160000D01*
G01*
G37*
%TD*%
%TO.C,R15*%
G36*
G01*
X148322000Y-100744000D02*
X148322000Y-100424000D01*
G75*
G02*
X148482000Y-100264000I160000J0D01*
G01*
X148877000Y-100264000D01*
G75*
G02*
X149037000Y-100424000I0J-160000D01*
G01*
X149037000Y-100744000D01*
G75*
G02*
X148877000Y-100904000I-160000J0D01*
G01*
X148482000Y-100904000D01*
G75*
G02*
X148322000Y-100744000I0J160000D01*
G01*
G37*
G36*
G01*
X147127000Y-100744000D02*
X147127000Y-100424000D01*
G75*
G02*
X147287000Y-100264000I160000J0D01*
G01*
X147682000Y-100264000D01*
G75*
G02*
X147842000Y-100424000I0J-160000D01*
G01*
X147842000Y-100744000D01*
G75*
G02*
X147682000Y-100904000I-160000J0D01*
G01*
X147287000Y-100904000D01*
G75*
G02*
X147127000Y-100744000I0J160000D01*
G01*
G37*
%TD*%
%TO.C,R14*%
G36*
G01*
X143016000Y-100424000D02*
X143016000Y-100744000D01*
G75*
G02*
X142856000Y-100904000I-160000J0D01*
G01*
X142461000Y-100904000D01*
G75*
G02*
X142301000Y-100744000I0J160000D01*
G01*
X142301000Y-100424000D01*
G75*
G02*
X142461000Y-100264000I160000J0D01*
G01*
X142856000Y-100264000D01*
G75*
G02*
X143016000Y-100424000I0J-160000D01*
G01*
G37*
G36*
G01*
X144211000Y-100424000D02*
X144211000Y-100744000D01*
G75*
G02*
X144051000Y-100904000I-160000J0D01*
G01*
X143656000Y-100904000D01*
G75*
G02*
X143496000Y-100744000I0J160000D01*
G01*
X143496000Y-100424000D01*
G75*
G02*
X143656000Y-100264000I160000J0D01*
G01*
X144051000Y-100264000D01*
G75*
G02*
X144211000Y-100424000I0J-160000D01*
G01*
G37*
%TD*%
%TO.C,R13*%
G36*
G01*
X177452000Y-99328000D02*
X177132000Y-99328000D01*
G75*
G02*
X176972000Y-99168000I0J160000D01*
G01*
X176972000Y-98773000D01*
G75*
G02*
X177132000Y-98613000I160000J0D01*
G01*
X177452000Y-98613000D01*
G75*
G02*
X177612000Y-98773000I0J-160000D01*
G01*
X177612000Y-99168000D01*
G75*
G02*
X177452000Y-99328000I-160000J0D01*
G01*
G37*
G36*
G01*
X177452000Y-100523000D02*
X177132000Y-100523000D01*
G75*
G02*
X176972000Y-100363000I0J160000D01*
G01*
X176972000Y-99968000D01*
G75*
G02*
X177132000Y-99808000I160000J0D01*
G01*
X177452000Y-99808000D01*
G75*
G02*
X177612000Y-99968000I0J-160000D01*
G01*
X177612000Y-100363000D01*
G75*
G02*
X177452000Y-100523000I-160000J0D01*
G01*
G37*
%TD*%
%TO.C,R12*%
G36*
G01*
X172560000Y-91045000D02*
X172880000Y-91045000D01*
G75*
G02*
X173040000Y-91205000I0J-160000D01*
G01*
X173040000Y-91600000D01*
G75*
G02*
X172880000Y-91760000I-160000J0D01*
G01*
X172560000Y-91760000D01*
G75*
G02*
X172400000Y-91600000I0J160000D01*
G01*
X172400000Y-91205000D01*
G75*
G02*
X172560000Y-91045000I160000J0D01*
G01*
G37*
G36*
G01*
X172560000Y-89850000D02*
X172880000Y-89850000D01*
G75*
G02*
X173040000Y-90010000I0J-160000D01*
G01*
X173040000Y-90405000D01*
G75*
G02*
X172880000Y-90565000I-160000J0D01*
G01*
X172560000Y-90565000D01*
G75*
G02*
X172400000Y-90405000I0J160000D01*
G01*
X172400000Y-90010000D01*
G75*
G02*
X172560000Y-89850000I160000J0D01*
G01*
G37*
%TD*%
%TO.C,R11*%
G36*
G01*
X156450000Y-72550000D02*
X156450000Y-72230000D01*
G75*
G02*
X156610000Y-72070000I160000J0D01*
G01*
X157005000Y-72070000D01*
G75*
G02*
X157165000Y-72230000I0J-160000D01*
G01*
X157165000Y-72550000D01*
G75*
G02*
X157005000Y-72710000I-160000J0D01*
G01*
X156610000Y-72710000D01*
G75*
G02*
X156450000Y-72550000I0J160000D01*
G01*
G37*
G36*
G01*
X155255000Y-72550000D02*
X155255000Y-72230000D01*
G75*
G02*
X155415000Y-72070000I160000J0D01*
G01*
X155810000Y-72070000D01*
G75*
G02*
X155970000Y-72230000I0J-160000D01*
G01*
X155970000Y-72550000D01*
G75*
G02*
X155810000Y-72710000I-160000J0D01*
G01*
X155415000Y-72710000D01*
G75*
G02*
X155255000Y-72550000I0J160000D01*
G01*
G37*
%TD*%
%TO.C,R10*%
G36*
G01*
X156450000Y-73820000D02*
X156450000Y-73500000D01*
G75*
G02*
X156610000Y-73340000I160000J0D01*
G01*
X157005000Y-73340000D01*
G75*
G02*
X157165000Y-73500000I0J-160000D01*
G01*
X157165000Y-73820000D01*
G75*
G02*
X157005000Y-73980000I-160000J0D01*
G01*
X156610000Y-73980000D01*
G75*
G02*
X156450000Y-73820000I0J160000D01*
G01*
G37*
G36*
G01*
X155255000Y-73820000D02*
X155255000Y-73500000D01*
G75*
G02*
X155415000Y-73340000I160000J0D01*
G01*
X155810000Y-73340000D01*
G75*
G02*
X155970000Y-73500000I0J-160000D01*
G01*
X155970000Y-73820000D01*
G75*
G02*
X155810000Y-73980000I-160000J0D01*
G01*
X155415000Y-73980000D01*
G75*
G02*
X155255000Y-73820000I0J160000D01*
G01*
G37*
%TD*%
%TO.C,R9*%
G36*
G01*
X183755000Y-89695000D02*
X183755000Y-89375000D01*
G75*
G02*
X183915000Y-89215000I160000J0D01*
G01*
X184310000Y-89215000D01*
G75*
G02*
X184470000Y-89375000I0J-160000D01*
G01*
X184470000Y-89695000D01*
G75*
G02*
X184310000Y-89855000I-160000J0D01*
G01*
X183915000Y-89855000D01*
G75*
G02*
X183755000Y-89695000I0J160000D01*
G01*
G37*
G36*
G01*
X182560000Y-89695000D02*
X182560000Y-89375000D01*
G75*
G02*
X182720000Y-89215000I160000J0D01*
G01*
X183115000Y-89215000D01*
G75*
G02*
X183275000Y-89375000I0J-160000D01*
G01*
X183275000Y-89695000D01*
G75*
G02*
X183115000Y-89855000I-160000J0D01*
G01*
X182720000Y-89855000D01*
G75*
G02*
X182560000Y-89695000I0J160000D01*
G01*
G37*
%TD*%
%TO.C,R8*%
G36*
G01*
X178402000Y-79742000D02*
X178722000Y-79742000D01*
G75*
G02*
X178882000Y-79902000I0J-160000D01*
G01*
X178882000Y-80297000D01*
G75*
G02*
X178722000Y-80457000I-160000J0D01*
G01*
X178402000Y-80457000D01*
G75*
G02*
X178242000Y-80297000I0J160000D01*
G01*
X178242000Y-79902000D01*
G75*
G02*
X178402000Y-79742000I160000J0D01*
G01*
G37*
G36*
G01*
X178402000Y-78547000D02*
X178722000Y-78547000D01*
G75*
G02*
X178882000Y-78707000I0J-160000D01*
G01*
X178882000Y-79102000D01*
G75*
G02*
X178722000Y-79262000I-160000J0D01*
G01*
X178402000Y-79262000D01*
G75*
G02*
X178242000Y-79102000I0J160000D01*
G01*
X178242000Y-78707000D01*
G75*
G02*
X178402000Y-78547000I160000J0D01*
G01*
G37*
%TD*%
%TO.C,R7*%
G36*
G01*
X178722000Y-84088000D02*
X178402000Y-84088000D01*
G75*
G02*
X178242000Y-83928000I0J160000D01*
G01*
X178242000Y-83533000D01*
G75*
G02*
X178402000Y-83373000I160000J0D01*
G01*
X178722000Y-83373000D01*
G75*
G02*
X178882000Y-83533000I0J-160000D01*
G01*
X178882000Y-83928000D01*
G75*
G02*
X178722000Y-84088000I-160000J0D01*
G01*
G37*
G36*
G01*
X178722000Y-85283000D02*
X178402000Y-85283000D01*
G75*
G02*
X178242000Y-85123000I0J160000D01*
G01*
X178242000Y-84728000D01*
G75*
G02*
X178402000Y-84568000I160000J0D01*
G01*
X178722000Y-84568000D01*
G75*
G02*
X178882000Y-84728000I0J-160000D01*
G01*
X178882000Y-85123000D01*
G75*
G02*
X178722000Y-85283000I-160000J0D01*
G01*
G37*
%TD*%
%TO.C,R6*%
G36*
G01*
X159098000Y-78980000D02*
X159418000Y-78980000D01*
G75*
G02*
X159578000Y-79140000I0J-160000D01*
G01*
X159578000Y-79535000D01*
G75*
G02*
X159418000Y-79695000I-160000J0D01*
G01*
X159098000Y-79695000D01*
G75*
G02*
X158938000Y-79535000I0J160000D01*
G01*
X158938000Y-79140000D01*
G75*
G02*
X159098000Y-78980000I160000J0D01*
G01*
G37*
G36*
G01*
X159098000Y-77785000D02*
X159418000Y-77785000D01*
G75*
G02*
X159578000Y-77945000I0J-160000D01*
G01*
X159578000Y-78340000D01*
G75*
G02*
X159418000Y-78500000I-160000J0D01*
G01*
X159098000Y-78500000D01*
G75*
G02*
X158938000Y-78340000I0J160000D01*
G01*
X158938000Y-77945000D01*
G75*
G02*
X159098000Y-77785000I160000J0D01*
G01*
G37*
%TD*%
%TO.C,R5*%
G36*
G01*
X155970000Y-76040000D02*
X155970000Y-76360000D01*
G75*
G02*
X155810000Y-76520000I-160000J0D01*
G01*
X155415000Y-76520000D01*
G75*
G02*
X155255000Y-76360000I0J160000D01*
G01*
X155255000Y-76040000D01*
G75*
G02*
X155415000Y-75880000I160000J0D01*
G01*
X155810000Y-75880000D01*
G75*
G02*
X155970000Y-76040000I0J-160000D01*
G01*
G37*
G36*
G01*
X157165000Y-76040000D02*
X157165000Y-76360000D01*
G75*
G02*
X157005000Y-76520000I-160000J0D01*
G01*
X156610000Y-76520000D01*
G75*
G02*
X156450000Y-76360000I0J160000D01*
G01*
X156450000Y-76040000D01*
G75*
G02*
X156610000Y-75880000I160000J0D01*
G01*
X157005000Y-75880000D01*
G75*
G02*
X157165000Y-76040000I0J-160000D01*
G01*
G37*
%TD*%
%TO.C,R4*%
G36*
G01*
X182720000Y-99300000D02*
X183040000Y-99300000D01*
G75*
G02*
X183200000Y-99460000I0J-160000D01*
G01*
X183200000Y-99855000D01*
G75*
G02*
X183040000Y-100015000I-160000J0D01*
G01*
X182720000Y-100015000D01*
G75*
G02*
X182560000Y-99855000I0J160000D01*
G01*
X182560000Y-99460000D01*
G75*
G02*
X182720000Y-99300000I160000J0D01*
G01*
G37*
G36*
G01*
X182720000Y-98105000D02*
X183040000Y-98105000D01*
G75*
G02*
X183200000Y-98265000I0J-160000D01*
G01*
X183200000Y-98660000D01*
G75*
G02*
X183040000Y-98820000I-160000J0D01*
G01*
X182720000Y-98820000D01*
G75*
G02*
X182560000Y-98660000I0J160000D01*
G01*
X182560000Y-98265000D01*
G75*
G02*
X182720000Y-98105000I160000J0D01*
G01*
G37*
%TD*%
%TO.C,R3*%
G36*
G01*
X183990000Y-99300000D02*
X184310000Y-99300000D01*
G75*
G02*
X184470000Y-99460000I0J-160000D01*
G01*
X184470000Y-99855000D01*
G75*
G02*
X184310000Y-100015000I-160000J0D01*
G01*
X183990000Y-100015000D01*
G75*
G02*
X183830000Y-99855000I0J160000D01*
G01*
X183830000Y-99460000D01*
G75*
G02*
X183990000Y-99300000I160000J0D01*
G01*
G37*
G36*
G01*
X183990000Y-98105000D02*
X184310000Y-98105000D01*
G75*
G02*
X184470000Y-98265000I0J-160000D01*
G01*
X184470000Y-98660000D01*
G75*
G02*
X184310000Y-98820000I-160000J0D01*
G01*
X183990000Y-98820000D01*
G75*
G02*
X183830000Y-98660000I0J160000D01*
G01*
X183830000Y-98265000D01*
G75*
G02*
X183990000Y-98105000I160000J0D01*
G01*
G37*
%TD*%
%TO.C,R2*%
G36*
G01*
X161450000Y-78500000D02*
X161130000Y-78500000D01*
G75*
G02*
X160970000Y-78340000I0J160000D01*
G01*
X160970000Y-77945000D01*
G75*
G02*
X161130000Y-77785000I160000J0D01*
G01*
X161450000Y-77785000D01*
G75*
G02*
X161610000Y-77945000I0J-160000D01*
G01*
X161610000Y-78340000D01*
G75*
G02*
X161450000Y-78500000I-160000J0D01*
G01*
G37*
G36*
G01*
X161450000Y-79695000D02*
X161130000Y-79695000D01*
G75*
G02*
X160970000Y-79535000I0J160000D01*
G01*
X160970000Y-79140000D01*
G75*
G02*
X161130000Y-78980000I160000J0D01*
G01*
X161450000Y-78980000D01*
G75*
G02*
X161610000Y-79140000I0J-160000D01*
G01*
X161610000Y-79535000D01*
G75*
G02*
X161450000Y-79695000I-160000J0D01*
G01*
G37*
%TD*%
%TO.C,R1*%
G36*
G01*
X160434000Y-78500000D02*
X160114000Y-78500000D01*
G75*
G02*
X159954000Y-78340000I0J160000D01*
G01*
X159954000Y-77945000D01*
G75*
G02*
X160114000Y-77785000I160000J0D01*
G01*
X160434000Y-77785000D01*
G75*
G02*
X160594000Y-77945000I0J-160000D01*
G01*
X160594000Y-78340000D01*
G75*
G02*
X160434000Y-78500000I-160000J0D01*
G01*
G37*
G36*
G01*
X160434000Y-79695000D02*
X160114000Y-79695000D01*
G75*
G02*
X159954000Y-79535000I0J160000D01*
G01*
X159954000Y-79140000D01*
G75*
G02*
X160114000Y-78980000I160000J0D01*
G01*
X160434000Y-78980000D01*
G75*
G02*
X160594000Y-79140000I0J-160000D01*
G01*
X160594000Y-79535000D01*
G75*
G02*
X160434000Y-79695000I-160000J0D01*
G01*
G37*
%TD*%
%TO.C,C10*%
G36*
G01*
X164860000Y-87470000D02*
X164860000Y-87790000D01*
G75*
G02*
X164700000Y-87950000I-160000J0D01*
G01*
X164305000Y-87950000D01*
G75*
G02*
X164145000Y-87790000I0J160000D01*
G01*
X164145000Y-87470000D01*
G75*
G02*
X164305000Y-87310000I160000J0D01*
G01*
X164700000Y-87310000D01*
G75*
G02*
X164860000Y-87470000I0J-160000D01*
G01*
G37*
G36*
G01*
X166055000Y-87470000D02*
X166055000Y-87790000D01*
G75*
G02*
X165895000Y-87950000I-160000J0D01*
G01*
X165500000Y-87950000D01*
G75*
G02*
X165340000Y-87790000I0J160000D01*
G01*
X165340000Y-87470000D01*
G75*
G02*
X165500000Y-87310000I160000J0D01*
G01*
X165895000Y-87310000D01*
G75*
G02*
X166055000Y-87470000I0J-160000D01*
G01*
G37*
%TD*%
%TO.C,C9*%
G36*
G01*
X166102000Y-93378000D02*
X166102000Y-93058000D01*
G75*
G02*
X166262000Y-92898000I160000J0D01*
G01*
X166657000Y-92898000D01*
G75*
G02*
X166817000Y-93058000I0J-160000D01*
G01*
X166817000Y-93378000D01*
G75*
G02*
X166657000Y-93538000I-160000J0D01*
G01*
X166262000Y-93538000D01*
G75*
G02*
X166102000Y-93378000I0J160000D01*
G01*
G37*
G36*
G01*
X164907000Y-93378000D02*
X164907000Y-93058000D01*
G75*
G02*
X165067000Y-92898000I160000J0D01*
G01*
X165462000Y-92898000D01*
G75*
G02*
X165622000Y-93058000I0J-160000D01*
G01*
X165622000Y-93378000D01*
G75*
G02*
X165462000Y-93538000I-160000J0D01*
G01*
X165067000Y-93538000D01*
G75*
G02*
X164907000Y-93378000I0J160000D01*
G01*
G37*
%TD*%
%TO.C,C8*%
G36*
G01*
X163590000Y-93058000D02*
X163590000Y-93378000D01*
G75*
G02*
X163430000Y-93538000I-160000J0D01*
G01*
X163035000Y-93538000D01*
G75*
G02*
X162875000Y-93378000I0J160000D01*
G01*
X162875000Y-93058000D01*
G75*
G02*
X163035000Y-92898000I160000J0D01*
G01*
X163430000Y-92898000D01*
G75*
G02*
X163590000Y-93058000I0J-160000D01*
G01*
G37*
G36*
G01*
X164785000Y-93058000D02*
X164785000Y-93378000D01*
G75*
G02*
X164625000Y-93538000I-160000J0D01*
G01*
X164230000Y-93538000D01*
G75*
G02*
X164070000Y-93378000I0J160000D01*
G01*
X164070000Y-93058000D01*
G75*
G02*
X164230000Y-92898000I160000J0D01*
G01*
X164625000Y-92898000D01*
G75*
G02*
X164785000Y-93058000I0J-160000D01*
G01*
G37*
%TD*%
%TO.C,C7*%
G36*
G01*
X139206000Y-100424000D02*
X139206000Y-100744000D01*
G75*
G02*
X139046000Y-100904000I-160000J0D01*
G01*
X138651000Y-100904000D01*
G75*
G02*
X138491000Y-100744000I0J160000D01*
G01*
X138491000Y-100424000D01*
G75*
G02*
X138651000Y-100264000I160000J0D01*
G01*
X139046000Y-100264000D01*
G75*
G02*
X139206000Y-100424000I0J-160000D01*
G01*
G37*
G36*
G01*
X140401000Y-100424000D02*
X140401000Y-100744000D01*
G75*
G02*
X140241000Y-100904000I-160000J0D01*
G01*
X139846000Y-100904000D01*
G75*
G02*
X139686000Y-100744000I0J160000D01*
G01*
X139686000Y-100424000D01*
G75*
G02*
X139846000Y-100264000I160000J0D01*
G01*
X140241000Y-100264000D01*
G75*
G02*
X140401000Y-100424000I0J-160000D01*
G01*
G37*
%TD*%
%TO.C,C6*%
G36*
G01*
X173468000Y-98204000D02*
X173468000Y-97884000D01*
G75*
G02*
X173628000Y-97724000I160000J0D01*
G01*
X174023000Y-97724000D01*
G75*
G02*
X174183000Y-97884000I0J-160000D01*
G01*
X174183000Y-98204000D01*
G75*
G02*
X174023000Y-98364000I-160000J0D01*
G01*
X173628000Y-98364000D01*
G75*
G02*
X173468000Y-98204000I0J160000D01*
G01*
G37*
G36*
G01*
X172273000Y-98204000D02*
X172273000Y-97884000D01*
G75*
G02*
X172433000Y-97724000I160000J0D01*
G01*
X172828000Y-97724000D01*
G75*
G02*
X172988000Y-97884000I0J-160000D01*
G01*
X172988000Y-98204000D01*
G75*
G02*
X172828000Y-98364000I-160000J0D01*
G01*
X172433000Y-98364000D01*
G75*
G02*
X172273000Y-98204000I0J160000D01*
G01*
G37*
%TD*%
%TO.C,C5*%
G36*
G01*
X168308000Y-73166000D02*
X167988000Y-73166000D01*
G75*
G02*
X167828000Y-73006000I0J160000D01*
G01*
X167828000Y-72611000D01*
G75*
G02*
X167988000Y-72451000I160000J0D01*
G01*
X168308000Y-72451000D01*
G75*
G02*
X168468000Y-72611000I0J-160000D01*
G01*
X168468000Y-73006000D01*
G75*
G02*
X168308000Y-73166000I-160000J0D01*
G01*
G37*
G36*
G01*
X168308000Y-74361000D02*
X167988000Y-74361000D01*
G75*
G02*
X167828000Y-74201000I0J160000D01*
G01*
X167828000Y-73806000D01*
G75*
G02*
X167988000Y-73646000I160000J0D01*
G01*
X168308000Y-73646000D01*
G75*
G02*
X168468000Y-73806000I0J-160000D01*
G01*
X168468000Y-74201000D01*
G75*
G02*
X168308000Y-74361000I-160000J0D01*
G01*
G37*
%TD*%
%TO.C,C4*%
G36*
G01*
X167988000Y-75932000D02*
X168308000Y-75932000D01*
G75*
G02*
X168468000Y-76092000I0J-160000D01*
G01*
X168468000Y-76487000D01*
G75*
G02*
X168308000Y-76647000I-160000J0D01*
G01*
X167988000Y-76647000D01*
G75*
G02*
X167828000Y-76487000I0J160000D01*
G01*
X167828000Y-76092000D01*
G75*
G02*
X167988000Y-75932000I160000J0D01*
G01*
G37*
G36*
G01*
X167988000Y-74737000D02*
X168308000Y-74737000D01*
G75*
G02*
X168468000Y-74897000I0J-160000D01*
G01*
X168468000Y-75292000D01*
G75*
G02*
X168308000Y-75452000I-160000J0D01*
G01*
X167988000Y-75452000D01*
G75*
G02*
X167828000Y-75292000I0J160000D01*
G01*
X167828000Y-74897000D01*
G75*
G02*
X167988000Y-74737000I160000J0D01*
G01*
G37*
%TD*%
%TO.C,C3*%
G36*
G01*
X180500000Y-93740000D02*
X180180000Y-93740000D01*
G75*
G02*
X180020000Y-93580000I0J160000D01*
G01*
X180020000Y-93185000D01*
G75*
G02*
X180180000Y-93025000I160000J0D01*
G01*
X180500000Y-93025000D01*
G75*
G02*
X180660000Y-93185000I0J-160000D01*
G01*
X180660000Y-93580000D01*
G75*
G02*
X180500000Y-93740000I-160000J0D01*
G01*
G37*
G36*
G01*
X180500000Y-94935000D02*
X180180000Y-94935000D01*
G75*
G02*
X180020000Y-94775000I0J160000D01*
G01*
X180020000Y-94380000D01*
G75*
G02*
X180180000Y-94220000I160000J0D01*
G01*
X180500000Y-94220000D01*
G75*
G02*
X180660000Y-94380000I0J-160000D01*
G01*
X180660000Y-94775000D01*
G75*
G02*
X180500000Y-94935000I-160000J0D01*
G01*
G37*
%TD*%
%TO.C,C2*%
G36*
G01*
X156450000Y-75090000D02*
X156450000Y-74770000D01*
G75*
G02*
X156610000Y-74610000I160000J0D01*
G01*
X157005000Y-74610000D01*
G75*
G02*
X157165000Y-74770000I0J-160000D01*
G01*
X157165000Y-75090000D01*
G75*
G02*
X157005000Y-75250000I-160000J0D01*
G01*
X156610000Y-75250000D01*
G75*
G02*
X156450000Y-75090000I0J160000D01*
G01*
G37*
G36*
G01*
X155255000Y-75090000D02*
X155255000Y-74770000D01*
G75*
G02*
X155415000Y-74610000I160000J0D01*
G01*
X155810000Y-74610000D01*
G75*
G02*
X155970000Y-74770000I0J-160000D01*
G01*
X155970000Y-75090000D01*
G75*
G02*
X155810000Y-75250000I-160000J0D01*
G01*
X155415000Y-75250000D01*
G75*
G02*
X155255000Y-75090000I0J160000D01*
G01*
G37*
%TD*%
%TO.C,C1*%
G36*
G01*
X187485000Y-93740000D02*
X187165000Y-93740000D01*
G75*
G02*
X187005000Y-93580000I0J160000D01*
G01*
X187005000Y-93185000D01*
G75*
G02*
X187165000Y-93025000I160000J0D01*
G01*
X187485000Y-93025000D01*
G75*
G02*
X187645000Y-93185000I0J-160000D01*
G01*
X187645000Y-93580000D01*
G75*
G02*
X187485000Y-93740000I-160000J0D01*
G01*
G37*
G36*
G01*
X187485000Y-94935000D02*
X187165000Y-94935000D01*
G75*
G02*
X187005000Y-94775000I0J160000D01*
G01*
X187005000Y-94380000D01*
G75*
G02*
X187165000Y-94220000I160000J0D01*
G01*
X187485000Y-94220000D01*
G75*
G02*
X187645000Y-94380000I0J-160000D01*
G01*
X187645000Y-94775000D01*
G75*
G02*
X187485000Y-94935000I-160000J0D01*
G01*
G37*
%TD*%
%TO.C,L1*%
G36*
G01*
X162428500Y-89649000D02*
X160278500Y-89649000D01*
G75*
G02*
X160028500Y-89399000I0J250000D01*
G01*
X160028500Y-88474000D01*
G75*
G02*
X160278500Y-88224000I250000J0D01*
G01*
X162428500Y-88224000D01*
G75*
G02*
X162678500Y-88474000I0J-250000D01*
G01*
X162678500Y-89399000D01*
G75*
G02*
X162428500Y-89649000I-250000J0D01*
G01*
G37*
G36*
G01*
X162428500Y-92624000D02*
X160278500Y-92624000D01*
G75*
G02*
X160028500Y-92374000I0J250000D01*
G01*
X160028500Y-91449000D01*
G75*
G02*
X160278500Y-91199000I250000J0D01*
G01*
X162428500Y-91199000D01*
G75*
G02*
X162678500Y-91449000I0J-250000D01*
G01*
X162678500Y-92374000D01*
G75*
G02*
X162428500Y-92624000I-250000J0D01*
G01*
G37*
%TD*%
%TO.C,D1*%
G36*
G01*
X185330000Y-99795000D02*
X185330000Y-99595000D01*
G75*
G02*
X185430000Y-99495000I100000J0D01*
G01*
X185865000Y-99495000D01*
G75*
G02*
X185965000Y-99595000I0J-100000D01*
G01*
X185965000Y-99795000D01*
G75*
G02*
X185865000Y-99895000I-100000J0D01*
G01*
X185430000Y-99895000D01*
G75*
G02*
X185330000Y-99795000I0J100000D01*
G01*
G37*
G36*
G01*
X186145000Y-99795000D02*
X186145000Y-99595000D01*
G75*
G02*
X186245000Y-99495000I100000J0D01*
G01*
X186680000Y-99495000D01*
G75*
G02*
X186780000Y-99595000I0J-100000D01*
G01*
X186780000Y-99795000D01*
G75*
G02*
X186680000Y-99895000I-100000J0D01*
G01*
X186245000Y-99895000D01*
G75*
G02*
X186145000Y-99795000I0J100000D01*
G01*
G37*
%TD*%
%TO.C,D2*%
G36*
G01*
X180885000Y-99595000D02*
X180885000Y-99795000D01*
G75*
G02*
X180785000Y-99895000I-100000J0D01*
G01*
X180350000Y-99895000D01*
G75*
G02*
X180250000Y-99795000I0J100000D01*
G01*
X180250000Y-99595000D01*
G75*
G02*
X180350000Y-99495000I100000J0D01*
G01*
X180785000Y-99495000D01*
G75*
G02*
X180885000Y-99595000I0J-100000D01*
G01*
G37*
G36*
G01*
X181700000Y-99595000D02*
X181700000Y-99795000D01*
G75*
G02*
X181600000Y-99895000I-100000J0D01*
G01*
X181165000Y-99895000D01*
G75*
G02*
X181065000Y-99795000I0J100000D01*
G01*
X181065000Y-99595000D01*
G75*
G02*
X181165000Y-99495000I100000J0D01*
G01*
X181600000Y-99495000D01*
G75*
G02*
X181700000Y-99595000I0J-100000D01*
G01*
G37*
%TD*%
D10*
%TO.C,J1*%
X181966000Y-86362000D03*
X181966000Y-77722000D03*
D11*
X186136000Y-86362000D03*
X186136000Y-77722000D03*
D12*
X181386000Y-82792000D03*
X181386000Y-82292000D03*
X181386000Y-81792000D03*
X181386000Y-83792000D03*
X181386000Y-83292000D03*
X181386000Y-80792000D03*
X181386000Y-81292000D03*
X181386000Y-80292000D03*
D13*
X182446000Y-79152000D03*
X182446000Y-84932000D03*
D14*
X181386000Y-84442000D03*
X181386000Y-84442000D03*
X181386000Y-85242000D03*
X181386000Y-85242000D03*
X181386000Y-79642000D03*
X181386000Y-78842000D03*
X181386000Y-79642000D03*
X181386000Y-78842000D03*
%TD*%
D15*
%TO.C,J2*%
X172720000Y-99568000D03*
D16*
X173720000Y-99568000D03*
%TD*%
D17*
%TO.C,Q1*%
X165928000Y-82154000D03*
X165928000Y-83454000D03*
X167828000Y-82804000D03*
X165928000Y-82804000D03*
X167828000Y-83454000D03*
X167828000Y-82154000D03*
%TD*%
D18*
%TO.C,SW1*%
X140551000Y-75402000D03*
X140551000Y-70902000D03*
X148501000Y-70902000D03*
X148501000Y-75402000D03*
%TD*%
D19*
%TO.C,SW2*%
X162346000Y-96183000D03*
X164846000Y-96183000D03*
X167346000Y-96183000D03*
D20*
X161446000Y-98933000D03*
X168246000Y-98933000D03*
%TD*%
D21*
%TO.C,U2*%
X161024000Y-76555500D03*
D22*
X158611500Y-71918000D03*
D21*
X161024000Y-71780500D03*
D22*
X161936500Y-71918000D03*
D21*
X160524000Y-71780500D03*
X160024000Y-71780500D03*
X159524000Y-71780500D03*
D22*
X161936500Y-72418000D03*
X161936500Y-72918000D03*
X161936500Y-73418000D03*
X161936500Y-73918000D03*
X161936500Y-74418000D03*
X161936500Y-74918000D03*
X161936500Y-75418000D03*
X161936500Y-75918000D03*
X161936500Y-76418000D03*
X158611500Y-72418000D03*
X158611500Y-72918000D03*
X158611500Y-73418000D03*
X158611500Y-73918000D03*
X158611500Y-74418000D03*
X158611500Y-74918000D03*
X158611500Y-75418000D03*
X158611500Y-75918000D03*
X158611500Y-76418000D03*
D21*
X160524000Y-76555500D03*
X160024000Y-76555500D03*
X159524000Y-76555500D03*
%TD*%
%TO.C,U3*%
G36*
G01*
X177186000Y-86337000D02*
X177186000Y-86637000D01*
G75*
G02*
X177036000Y-86787000I-150000J0D01*
G01*
X175386000Y-86787000D01*
G75*
G02*
X175236000Y-86637000I0J150000D01*
G01*
X175236000Y-86337000D01*
G75*
G02*
X175386000Y-86187000I150000J0D01*
G01*
X177036000Y-86187000D01*
G75*
G02*
X177186000Y-86337000I0J-150000D01*
G01*
G37*
G36*
G01*
X177186000Y-85067000D02*
X177186000Y-85367000D01*
G75*
G02*
X177036000Y-85517000I-150000J0D01*
G01*
X175386000Y-85517000D01*
G75*
G02*
X175236000Y-85367000I0J150000D01*
G01*
X175236000Y-85067000D01*
G75*
G02*
X175386000Y-84917000I150000J0D01*
G01*
X177036000Y-84917000D01*
G75*
G02*
X177186000Y-85067000I0J-150000D01*
G01*
G37*
G36*
G01*
X177186000Y-83797000D02*
X177186000Y-84097000D01*
G75*
G02*
X177036000Y-84247000I-150000J0D01*
G01*
X175386000Y-84247000D01*
G75*
G02*
X175236000Y-84097000I0J150000D01*
G01*
X175236000Y-83797000D01*
G75*
G02*
X175386000Y-83647000I150000J0D01*
G01*
X177036000Y-83647000D01*
G75*
G02*
X177186000Y-83797000I0J-150000D01*
G01*
G37*
G36*
G01*
X177186000Y-82527000D02*
X177186000Y-82827000D01*
G75*
G02*
X177036000Y-82977000I-150000J0D01*
G01*
X175386000Y-82977000D01*
G75*
G02*
X175236000Y-82827000I0J150000D01*
G01*
X175236000Y-82527000D01*
G75*
G02*
X175386000Y-82377000I150000J0D01*
G01*
X177036000Y-82377000D01*
G75*
G02*
X177186000Y-82527000I0J-150000D01*
G01*
G37*
G36*
G01*
X177186000Y-81257000D02*
X177186000Y-81557000D01*
G75*
G02*
X177036000Y-81707000I-150000J0D01*
G01*
X175386000Y-81707000D01*
G75*
G02*
X175236000Y-81557000I0J150000D01*
G01*
X175236000Y-81257000D01*
G75*
G02*
X175386000Y-81107000I150000J0D01*
G01*
X177036000Y-81107000D01*
G75*
G02*
X177186000Y-81257000I0J-150000D01*
G01*
G37*
G36*
G01*
X177186000Y-79987000D02*
X177186000Y-80287000D01*
G75*
G02*
X177036000Y-80437000I-150000J0D01*
G01*
X175386000Y-80437000D01*
G75*
G02*
X175236000Y-80287000I0J150000D01*
G01*
X175236000Y-79987000D01*
G75*
G02*
X175386000Y-79837000I150000J0D01*
G01*
X177036000Y-79837000D01*
G75*
G02*
X177186000Y-79987000I0J-150000D01*
G01*
G37*
G36*
G01*
X177186000Y-78717000D02*
X177186000Y-79017000D01*
G75*
G02*
X177036000Y-79167000I-150000J0D01*
G01*
X175386000Y-79167000D01*
G75*
G02*
X175236000Y-79017000I0J150000D01*
G01*
X175236000Y-78717000D01*
G75*
G02*
X175386000Y-78567000I150000J0D01*
G01*
X177036000Y-78567000D01*
G75*
G02*
X177186000Y-78717000I0J-150000D01*
G01*
G37*
G36*
G01*
X177186000Y-77447000D02*
X177186000Y-77747000D01*
G75*
G02*
X177036000Y-77897000I-150000J0D01*
G01*
X175386000Y-77897000D01*
G75*
G02*
X175236000Y-77747000I0J150000D01*
G01*
X175236000Y-77447000D01*
G75*
G02*
X175386000Y-77297000I150000J0D01*
G01*
X177036000Y-77297000D01*
G75*
G02*
X177186000Y-77447000I0J-150000D01*
G01*
G37*
G36*
G01*
X172236000Y-77447000D02*
X172236000Y-77747000D01*
G75*
G02*
X172086000Y-77897000I-150000J0D01*
G01*
X170436000Y-77897000D01*
G75*
G02*
X170286000Y-77747000I0J150000D01*
G01*
X170286000Y-77447000D01*
G75*
G02*
X170436000Y-77297000I150000J0D01*
G01*
X172086000Y-77297000D01*
G75*
G02*
X172236000Y-77447000I0J-150000D01*
G01*
G37*
G36*
G01*
X172236000Y-78717000D02*
X172236000Y-79017000D01*
G75*
G02*
X172086000Y-79167000I-150000J0D01*
G01*
X170436000Y-79167000D01*
G75*
G02*
X170286000Y-79017000I0J150000D01*
G01*
X170286000Y-78717000D01*
G75*
G02*
X170436000Y-78567000I150000J0D01*
G01*
X172086000Y-78567000D01*
G75*
G02*
X172236000Y-78717000I0J-150000D01*
G01*
G37*
G36*
G01*
X172236000Y-79987000D02*
X172236000Y-80287000D01*
G75*
G02*
X172086000Y-80437000I-150000J0D01*
G01*
X170436000Y-80437000D01*
G75*
G02*
X170286000Y-80287000I0J150000D01*
G01*
X170286000Y-79987000D01*
G75*
G02*
X170436000Y-79837000I150000J0D01*
G01*
X172086000Y-79837000D01*
G75*
G02*
X172236000Y-79987000I0J-150000D01*
G01*
G37*
G36*
G01*
X172236000Y-81257000D02*
X172236000Y-81557000D01*
G75*
G02*
X172086000Y-81707000I-150000J0D01*
G01*
X170436000Y-81707000D01*
G75*
G02*
X170286000Y-81557000I0J150000D01*
G01*
X170286000Y-81257000D01*
G75*
G02*
X170436000Y-81107000I150000J0D01*
G01*
X172086000Y-81107000D01*
G75*
G02*
X172236000Y-81257000I0J-150000D01*
G01*
G37*
G36*
G01*
X172236000Y-82527000D02*
X172236000Y-82827000D01*
G75*
G02*
X172086000Y-82977000I-150000J0D01*
G01*
X170436000Y-82977000D01*
G75*
G02*
X170286000Y-82827000I0J150000D01*
G01*
X170286000Y-82527000D01*
G75*
G02*
X170436000Y-82377000I150000J0D01*
G01*
X172086000Y-82377000D01*
G75*
G02*
X172236000Y-82527000I0J-150000D01*
G01*
G37*
G36*
G01*
X172236000Y-83797000D02*
X172236000Y-84097000D01*
G75*
G02*
X172086000Y-84247000I-150000J0D01*
G01*
X170436000Y-84247000D01*
G75*
G02*
X170286000Y-84097000I0J150000D01*
G01*
X170286000Y-83797000D01*
G75*
G02*
X170436000Y-83647000I150000J0D01*
G01*
X172086000Y-83647000D01*
G75*
G02*
X172236000Y-83797000I0J-150000D01*
G01*
G37*
G36*
G01*
X172236000Y-85067000D02*
X172236000Y-85367000D01*
G75*
G02*
X172086000Y-85517000I-150000J0D01*
G01*
X170436000Y-85517000D01*
G75*
G02*
X170286000Y-85367000I0J150000D01*
G01*
X170286000Y-85067000D01*
G75*
G02*
X170436000Y-84917000I150000J0D01*
G01*
X172086000Y-84917000D01*
G75*
G02*
X172236000Y-85067000I0J-150000D01*
G01*
G37*
G36*
G01*
X172236000Y-86337000D02*
X172236000Y-86637000D01*
G75*
G02*
X172086000Y-86787000I-150000J0D01*
G01*
X170436000Y-86787000D01*
G75*
G02*
X170286000Y-86637000I0J150000D01*
G01*
X170286000Y-86337000D01*
G75*
G02*
X170436000Y-86187000I150000J0D01*
G01*
X172086000Y-86187000D01*
G75*
G02*
X172236000Y-86337000I0J-150000D01*
G01*
G37*
%TD*%
D23*
%TO.C,U4*%
X173670000Y-93265000D03*
X172720000Y-93265000D03*
X171770000Y-93265000D03*
X171770000Y-95965000D03*
X173670000Y-95965000D03*
X172720000Y-95965000D03*
%TD*%
%TO.C,U5*%
G36*
G01*
X176290000Y-97580000D02*
X176090000Y-97580000D01*
G75*
G02*
X175990000Y-97480000I0J100000D01*
G01*
X175990000Y-96205000D01*
G75*
G02*
X176090000Y-96105000I100000J0D01*
G01*
X176290000Y-96105000D01*
G75*
G02*
X176390000Y-96205000I0J-100000D01*
G01*
X176390000Y-97480000D01*
G75*
G02*
X176290000Y-97580000I-100000J0D01*
G01*
G37*
G36*
G01*
X176940000Y-97580000D02*
X176740000Y-97580000D01*
G75*
G02*
X176640000Y-97480000I0J100000D01*
G01*
X176640000Y-96205000D01*
G75*
G02*
X176740000Y-96105000I100000J0D01*
G01*
X176940000Y-96105000D01*
G75*
G02*
X177040000Y-96205000I0J-100000D01*
G01*
X177040000Y-97480000D01*
G75*
G02*
X176940000Y-97580000I-100000J0D01*
G01*
G37*
G36*
G01*
X177590000Y-97580000D02*
X177390000Y-97580000D01*
G75*
G02*
X177290000Y-97480000I0J100000D01*
G01*
X177290000Y-96205000D01*
G75*
G02*
X177390000Y-96105000I100000J0D01*
G01*
X177590000Y-96105000D01*
G75*
G02*
X177690000Y-96205000I0J-100000D01*
G01*
X177690000Y-97480000D01*
G75*
G02*
X177590000Y-97580000I-100000J0D01*
G01*
G37*
G36*
G01*
X178240000Y-97580000D02*
X178040000Y-97580000D01*
G75*
G02*
X177940000Y-97480000I0J100000D01*
G01*
X177940000Y-96205000D01*
G75*
G02*
X178040000Y-96105000I100000J0D01*
G01*
X178240000Y-96105000D01*
G75*
G02*
X178340000Y-96205000I0J-100000D01*
G01*
X178340000Y-97480000D01*
G75*
G02*
X178240000Y-97580000I-100000J0D01*
G01*
G37*
G36*
G01*
X178240000Y-91855000D02*
X178040000Y-91855000D01*
G75*
G02*
X177940000Y-91755000I0J100000D01*
G01*
X177940000Y-90480000D01*
G75*
G02*
X178040000Y-90380000I100000J0D01*
G01*
X178240000Y-90380000D01*
G75*
G02*
X178340000Y-90480000I0J-100000D01*
G01*
X178340000Y-91755000D01*
G75*
G02*
X178240000Y-91855000I-100000J0D01*
G01*
G37*
G36*
G01*
X177590000Y-91855000D02*
X177390000Y-91855000D01*
G75*
G02*
X177290000Y-91755000I0J100000D01*
G01*
X177290000Y-90480000D01*
G75*
G02*
X177390000Y-90380000I100000J0D01*
G01*
X177590000Y-90380000D01*
G75*
G02*
X177690000Y-90480000I0J-100000D01*
G01*
X177690000Y-91755000D01*
G75*
G02*
X177590000Y-91855000I-100000J0D01*
G01*
G37*
G36*
G01*
X176940000Y-91855000D02*
X176740000Y-91855000D01*
G75*
G02*
X176640000Y-91755000I0J100000D01*
G01*
X176640000Y-90480000D01*
G75*
G02*
X176740000Y-90380000I100000J0D01*
G01*
X176940000Y-90380000D01*
G75*
G02*
X177040000Y-90480000I0J-100000D01*
G01*
X177040000Y-91755000D01*
G75*
G02*
X176940000Y-91855000I-100000J0D01*
G01*
G37*
G36*
G01*
X176290000Y-91855000D02*
X176090000Y-91855000D01*
G75*
G02*
X175990000Y-91755000I0J100000D01*
G01*
X175990000Y-90480000D01*
G75*
G02*
X176090000Y-90380000I100000J0D01*
G01*
X176290000Y-90380000D01*
G75*
G02*
X176390000Y-90480000I0J-100000D01*
G01*
X176390000Y-91755000D01*
G75*
G02*
X176290000Y-91855000I-100000J0D01*
G01*
G37*
%TD*%
D24*
%TO.C,U6*%
X142550000Y-98024000D03*
X144550000Y-98024000D03*
X146550000Y-98024000D03*
X148550000Y-98024000D03*
X150550000Y-98024000D03*
X152550000Y-98024000D03*
X154550000Y-98024000D03*
X156550000Y-98024000D03*
D25*
X158050000Y-95424000D03*
X158050000Y-93424000D03*
X158050000Y-91424000D03*
X158050000Y-89424000D03*
X158050000Y-87424000D03*
X158050000Y-85424000D03*
D24*
X156550000Y-82824000D03*
X154550000Y-82824000D03*
X152550000Y-82824000D03*
X150550000Y-82824000D03*
X148550000Y-82824000D03*
X146550000Y-82824000D03*
X144550000Y-82824000D03*
X142550000Y-82824000D03*
%TD*%
D26*
%TO.C,U7*%
X163446000Y-89424000D03*
X163446000Y-89924000D03*
X163446000Y-90424000D03*
X163446000Y-90924000D03*
X163446000Y-91424000D03*
X166246000Y-91424000D03*
X166246000Y-90924000D03*
X166246000Y-90424000D03*
X166246000Y-89924000D03*
X166246000Y-89424000D03*
D27*
G36*
X164721000Y-89224000D02*
G01*
X164971000Y-89224000D01*
X164971000Y-88724000D01*
X165221000Y-88724000D01*
X165221000Y-89224000D01*
X165671000Y-89224000D01*
X165671000Y-91624000D01*
X165221000Y-91624000D01*
X165221000Y-92124000D01*
X164971000Y-92124000D01*
X164971000Y-91624000D01*
X164721000Y-91624000D01*
X164721000Y-92124000D01*
X164471000Y-92124000D01*
X164471000Y-91624000D01*
X164021000Y-91624000D01*
X164021000Y-89224000D01*
X164471000Y-89224000D01*
X164471000Y-88724000D01*
X164721000Y-88724000D01*
X164721000Y-89224000D01*
G37*
%TD*%
D28*
%TO.C,Y1*%
X165608000Y-71509500D03*
X165608000Y-77334500D03*
%TD*%
D29*
%TO.C,U1*%
X185420000Y-91280000D03*
X184150000Y-91280000D03*
X182880000Y-91280000D03*
X181610000Y-91280000D03*
X181610000Y-96680000D03*
X182880000Y-96680000D03*
X184150000Y-96680000D03*
X185420000Y-96680000D03*
D30*
X183515000Y-93980000D03*
%TD*%
M02*
